<svg viewBox="0 0 179 57" xmlns="http://www.w3.org/2000/svg">
<path d="M27.959 56.3421C12.5177 56.3421 0 43.8244 0 28.3831C0 12.9417 12.5177 0.424072 27.959 0.424072V39.6856C27.8213 50.488 36.4842 55.0611 36.4842 55.0611C33.0095 56.3909 27.959 56.3421 27.959 56.3421Z"></path>
<path d="M30.2319 0.424072H48.1418C58.1155 0.424072 65.3764 9.14441 65.3764 19.1216H48.2615C40.9099 19.1216 33.694 23.097 30.2319 29.0154V0.424072Z"></path>
<path d="M47.8626 56.3422H65.41V21.2475H47.8626C38.1715 21.2475 30.3153 29.1037 30.3153 38.7949C30.3153 48.486 38.1715 56.3422 47.8626 56.3422Z"></path>
<path d="M130.984 56.0729C130.786 56.0729 130.696 55.965 130.786 55.7853L132.044 52.6753L128.647 44.1542C128.575 43.9565 128.665 43.8486 128.862 43.8486H130.319C130.462 43.8486 130.57 43.9205 130.624 44.0644L132.997 50.4282L135.388 44.0644C135.442 43.9205 135.55 43.8486 135.694 43.8486H137.15C137.347 43.8486 137.419 43.9565 137.347 44.1542L132.709 55.8572C132.656 56.001 132.53 56.0729 132.386 56.0729H130.984Z"></path>
<path d="M124.323 52.8727C121.681 52.8727 119.703 50.8772 119.703 48.2346C119.703 45.61 121.663 43.6326 124.288 43.6326C125.726 43.6326 126.894 44.2258 127.649 45.1606C127.757 45.3044 127.757 45.4303 127.649 45.5381L126.84 46.3111C126.696 46.4549 126.517 46.419 126.409 46.2931C125.887 45.7718 125.294 45.4303 124.377 45.4303C122.724 45.4303 121.573 46.6167 121.573 48.2346C121.573 49.8526 122.724 51.075 124.413 51.075C125.312 51.075 125.905 50.7334 126.409 50.2121C126.535 50.0863 126.714 50.0503 126.858 50.1941L127.667 50.9671C127.775 51.075 127.775 51.2008 127.667 51.3446C126.912 52.2794 125.744 52.8727 124.323 52.8727Z"></path>
<path d="M110.458 52.6569C110.297 52.6569 110.207 52.5491 110.207 52.3873V44.1179C110.207 43.9562 110.297 43.8483 110.458 43.8483H111.825C111.987 43.8483 112.076 43.9202 112.076 44.1359L112.148 45.2145C112.652 44.3157 113.533 43.6326 114.917 43.6326C116.786 43.6326 118.117 44.9269 118.117 47.2459V52.3873C118.117 52.5491 118.009 52.6569 117.847 52.6569H116.427C116.265 52.6569 116.175 52.5491 116.175 52.3873V47.6055C116.175 46.2212 115.492 45.4303 114.252 45.4303C113.011 45.4303 112.148 46.2212 112.148 47.6055V52.3873C112.148 52.5491 112.058 52.6569 111.897 52.6569H110.458Z"></path>
<path d="M104.699 52.8727C101.822 52.8727 99.9527 50.8413 99.9527 48.2167C99.9527 45.628 101.75 43.6326 104.429 43.6326C107.071 43.6326 108.6 45.628 108.6 47.8212C108.6 48.5942 108.438 48.9717 107.773 48.9717H101.84C102.074 50.3739 103.117 51.3087 104.86 51.3087C105.723 51.3087 106.424 51.093 107.125 50.6256C107.233 50.5537 107.341 50.5716 107.413 50.6795L107.916 51.3626C108.024 51.5064 107.988 51.6143 107.845 51.7581C107.072 52.5131 105.939 52.8727 104.699 52.8727ZM101.822 47.5695H106.874C106.766 46.1314 105.813 45.2685 104.429 45.2685C103.045 45.2685 102.02 46.1134 101.822 47.5695Z"></path>
<path d="M93.764 56.3422C92.4697 56.3422 91.2832 55.9827 90.4922 55.4074C90.3304 55.2995 90.2945 55.1198 90.3664 54.958L90.7798 54.185C90.8697 54.0412 91.0135 53.9872 91.1753 54.0771C91.9303 54.5265 92.7753 54.7423 93.6022 54.7423C95.0583 54.7423 96.4785 54.0951 96.4785 52.1896V51.0031C95.8853 51.9379 94.8786 52.5131 93.4764 52.5131C90.9776 52.5131 89.2698 50.6795 89.2698 48.0729C89.2698 45.4662 90.9776 43.6326 93.4584 43.6326C94.8965 43.6326 95.9032 44.2078 96.4965 45.1786L96.5324 44.1179C96.5324 43.9562 96.6223 43.8483 96.7841 43.8483H98.0964C98.2582 43.8483 98.3481 43.9562 98.3481 44.1179V52.2435C98.3481 55.2636 95.9931 56.3422 93.764 56.3422ZM91.1573 48.0729C91.1573 49.7267 92.3079 50.7514 93.8179 50.7514C95.346 50.7514 96.4246 49.7267 96.4246 48.0908C96.4246 46.437 95.346 45.3943 93.8179 45.3943C92.3079 45.3943 91.1573 46.437 91.1573 48.0729Z"></path>
<path d="M78.1708 52.658C77.973 52.658 77.8831 52.5322 77.955 52.3524L82.2335 40.2899C82.2875 40.1461 82.4133 40.0742 82.5571 40.0742H84.193C84.3368 40.0742 84.4806 40.1461 84.5346 40.2899L88.8131 52.3524C88.885 52.5322 88.7951 52.658 88.5973 52.658H87.0334C86.8895 52.658 86.7817 52.6041 86.7277 52.4423L85.9907 50.2491H80.7774L80.0224 52.4423C79.9685 52.6041 79.8786 52.658 79.7168 52.658H78.1708ZM81.3886 48.4514H85.3795L83.3841 42.573L81.3886 48.4514Z"></path>
<path d="M175.099 34.8961C172.223 34.8961 170.353 32.8647 170.353 30.2401C170.353 27.6514 172.151 25.656 174.829 25.656C177.472 25.656 179 27.6514 179 29.8446C179 30.6176 178.838 30.9951 178.173 30.9951H172.241C172.474 32.3973 173.517 33.3321 175.261 33.3321C176.124 33.3321 176.825 33.1164 177.526 32.649C177.634 32.5771 177.742 32.5951 177.813 32.7029L178.317 33.3861C178.425 33.5299 178.389 33.6377 178.245 33.7815C177.472 34.5366 176.339 34.8961 175.099 34.8961ZM172.223 29.5929H177.274C177.166 28.1548 176.214 27.2919 174.829 27.2919C173.445 27.2919 172.42 28.1368 172.223 29.5929Z"></path>
<path d="M166.134 34.8961C163.491 34.8961 161.514 32.9007 161.514 30.2581C161.514 27.6335 163.473 25.656 166.098 25.656C167.536 25.656 168.704 26.2492 169.459 27.184C169.567 27.3279 169.567 27.4537 169.459 27.5616L168.65 28.3346C168.507 28.4784 168.327 28.4424 168.219 28.3166C167.698 27.7953 167.104 27.4537 166.188 27.4537C164.534 27.4537 163.383 28.6402 163.383 30.2581C163.383 31.876 164.534 33.0984 166.223 33.0984C167.122 33.0984 167.716 32.7569 168.219 32.2355C168.345 32.1097 168.525 32.0737 168.668 32.2176L169.477 32.9906C169.585 33.0984 169.585 33.2243 169.477 33.3681C168.722 34.3029 167.554 34.8961 166.134 34.8961Z"></path>
<path d="M152.269 34.6804C152.107 34.6804 152.018 34.5725 152.018 34.4107V26.1414C152.018 25.9796 152.107 25.8717 152.269 25.8717H153.636C153.797 25.8717 153.887 25.9436 153.887 26.1594L153.959 27.238C154.462 26.3391 155.343 25.656 156.728 25.656C158.597 25.656 159.927 26.9503 159.927 29.2694V34.4107C159.927 34.5725 159.82 34.6804 159.658 34.6804H158.238C158.076 34.6804 157.986 34.5725 157.986 34.4107V29.6289C157.986 28.2447 157.303 27.4537 156.062 27.4537C154.822 27.4537 153.959 28.2447 153.959 29.6289V34.4107C153.959 34.5725 153.869 34.6804 153.707 34.6804H152.269Z"></path>
<path d="M145.005 34.8961C142.488 34.8961 140.762 32.9007 140.762 30.2761C140.762 27.6694 142.488 25.656 145.005 25.656C146.461 25.656 147.504 26.3032 148.115 27.3279L148.151 26.1414C148.151 25.9796 148.241 25.8717 148.403 25.8717H149.715C149.877 25.8717 149.967 25.9796 149.967 26.1414V34.4107C149.967 34.5725 149.877 34.6804 149.715 34.6804H148.403C148.241 34.6804 148.151 34.5725 148.151 34.4107L148.115 33.2422C147.486 34.2669 146.443 34.8961 145.005 34.8961ZM142.65 30.2761C142.65 31.9839 143.801 33.1164 145.382 33.1164C146.946 33.1164 148.043 31.9839 148.043 30.294C148.043 28.5862 146.946 27.4357 145.382 27.4357C143.801 27.4357 142.65 28.5862 142.65 30.2761Z"></path>
<path d="M126.76 34.6804C126.598 34.6804 126.508 34.5725 126.508 34.4107V26.1414C126.508 25.9796 126.598 25.8717 126.76 25.8717H128.126C128.288 25.8717 128.378 25.9436 128.378 26.1594L128.432 27.1121C128.881 26.2852 129.672 25.656 130.913 25.656C132.081 25.656 132.98 26.2133 133.448 27.2919C133.933 26.3751 134.778 25.656 136.198 25.656C138.05 25.656 139.182 26.8964 139.182 29.2154V34.4107C139.182 34.5725 139.092 34.6804 138.93 34.6804H137.492C137.331 34.6804 137.241 34.5725 137.241 34.4107V29.575C137.241 28.2087 136.719 27.4537 135.605 27.4537C134.508 27.4537 133.807 28.2267 133.807 29.575V34.4107C133.807 34.5725 133.717 34.6804 133.555 34.6804H132.135C131.955 34.6804 131.866 34.5725 131.866 34.4107V29.575C131.866 28.2087 131.29 27.4537 130.194 27.4537C129.097 27.4537 128.45 28.2267 128.45 29.575V34.4107C128.45 34.5725 128.36 34.6804 128.198 34.6804H126.76Z"></path>
<path d="M120.431 34.6804C120.269 34.6804 120.179 34.5725 120.179 34.4107V26.1414C120.179 25.9796 120.269 25.8717 120.431 25.8717H121.797C121.959 25.8717 122.049 25.9436 122.049 26.1594L122.103 27.22C122.426 26.3391 123.002 25.656 124.062 25.656C124.458 25.656 124.728 25.7459 124.871 25.8538C124.997 25.9436 125.033 26.0335 125.033 26.1953V27.3458C125.033 27.5436 124.907 27.5975 124.692 27.5436C124.476 27.4717 124.278 27.4537 124.044 27.4537C122.66 27.4537 122.121 28.5323 122.121 29.6648V34.4107C122.121 34.5725 122.031 34.6804 121.869 34.6804H120.431Z"></path>
<path d="M114.034 34.8961C111.41 34.8961 109.468 32.8827 109.468 30.2761C109.468 27.6694 111.41 25.656 114.034 25.656C116.641 25.656 118.582 27.6694 118.582 30.2761C118.582 32.8827 116.641 34.8961 114.034 34.8961ZM111.338 30.2761C111.338 31.9659 112.506 33.0984 114.034 33.0984C115.544 33.0984 116.713 31.9659 116.713 30.2761C116.713 28.5862 115.544 27.4537 114.034 27.4537C112.506 27.4537 111.338 28.5862 111.338 30.2761Z"></path>
<path d="M105.228 34.6792C105.066 34.6792 104.976 34.5713 104.976 34.4095V27.4165H103.915C103.753 27.4165 103.664 27.3087 103.664 27.1469V26.1402C103.664 25.9784 103.753 25.8705 103.915 25.8705H104.976V24.2166C104.976 22.419 105.947 21.5381 107.672 21.5381C108.086 21.5381 108.427 21.574 108.787 21.7538C108.913 21.8077 108.949 21.8796 108.949 22.0055V23.2279C108.949 23.3537 108.841 23.3717 108.733 23.3537C108.463 23.3178 108.248 23.2818 108.05 23.2818C107.115 23.2818 106.917 23.8211 106.917 24.5402V25.8705H108.697C108.859 25.8705 108.949 25.9784 108.949 26.1402V27.1469C108.949 27.3087 108.859 27.4165 108.697 27.4165H106.917V34.4095C106.917 34.5713 106.827 34.6792 106.666 34.6792H105.228Z"></path>
<path d="M97.9503 34.6804C97.7885 34.6804 97.6986 34.5725 97.6986 34.4107V26.1414C97.6986 25.9796 97.7885 25.8717 97.9503 25.8717H99.3165C99.4783 25.8717 99.5682 25.9436 99.5682 26.1594L99.6221 27.22C99.9457 26.3391 100.521 25.656 101.582 25.656C101.977 25.656 102.247 25.7459 102.391 25.8538C102.516 25.9436 102.552 26.0335 102.552 26.1953V27.3458C102.552 27.5436 102.427 27.5975 102.211 27.5436C101.995 27.4717 101.797 27.4537 101.564 27.4537C100.179 27.4537 99.6401 28.5323 99.6401 29.6648V34.4107C99.6401 34.5725 99.5502 34.6804 99.3884 34.6804H97.9503Z"></path>
<path d="M92.1897 34.8961C89.3134 34.8961 87.4438 32.8647 87.4438 30.2401C87.4438 27.6514 89.2415 25.656 91.9201 25.656C94.5626 25.656 96.0907 27.6514 96.0907 29.8446C96.0907 30.6176 95.9289 30.9951 95.2637 30.9951H89.3314C89.5651 32.3973 90.6077 33.3321 92.3515 33.3321C93.2144 33.3321 93.9155 33.1164 94.6166 32.649C94.7244 32.5771 94.8323 32.5951 94.9042 32.7029L95.4076 33.3861C95.5154 33.5299 95.4795 33.6377 95.3357 33.7815C94.5627 34.5366 93.4301 34.8961 92.1897 34.8961ZM89.3134 29.5929H94.3649C94.257 28.1548 93.3043 27.2919 91.9201 27.2919C90.5358 27.2919 89.5112 28.1368 89.3134 29.5929Z"></path>
<path d="M78.8181 34.6793C78.6563 34.6793 78.5664 34.5714 78.5664 34.4096V22.3651C78.5664 22.2033 78.6563 22.0955 78.8181 22.0955H82.4494C85.3078 22.0955 86.7459 23.7493 86.7459 26.1043C86.7459 28.4593 85.3078 30.1131 82.4494 30.1131H80.5798V34.4096C80.5798 34.5714 80.472 34.6793 80.3102 34.6793H78.8181ZM80.5798 28.3155H82.3596C83.6898 28.3155 84.8044 27.7941 84.8044 26.1043C84.8044 24.4145 83.6898 23.8931 82.3596 23.8931H80.5798V28.3155Z"></path>
<path d="M125.178 16.9193C122.302 16.9193 120.432 14.8879 120.432 12.2633C120.432 9.67463 122.23 7.6792 124.909 7.6792C127.551 7.6792 129.079 9.67463 129.079 11.8678C129.079 12.6408 128.918 13.0183 128.252 13.0183H122.32C122.554 14.4205 123.596 15.3553 125.34 15.3553C126.203 15.3553 126.904 15.1396 127.605 14.6722C127.713 14.6003 127.821 14.6183 127.893 14.7261L128.396 15.4092C128.504 15.5531 128.468 15.6609 128.324 15.8047C127.551 16.5598 126.419 16.9193 125.178 16.9193ZM122.302 11.6161H127.354C127.246 10.178 126.293 9.31509 124.909 9.31509C123.524 9.31509 122.5 10.16 122.302 11.6161Z"></path>
<path d="M111.188 16.7036C111.026 16.7036 110.936 16.5957 110.936 16.4339V8.16457C110.936 8.00278 111.026 7.89492 111.188 7.89492H112.554C112.716 7.89492 112.805 7.96683 112.805 8.18255L112.877 9.26116C113.381 8.36232 114.262 7.6792 115.646 7.6792C117.515 7.6792 118.846 8.97353 118.846 11.2925V16.4339C118.846 16.5957 118.738 16.7036 118.576 16.7036H117.156C116.994 16.7036 116.904 16.5957 116.904 16.4339V11.6521C116.904 10.2679 116.221 9.47688 114.981 9.47688C113.74 9.47688 112.877 10.2679 112.877 11.6521V16.4339C112.877 16.5957 112.787 16.7036 112.626 16.7036H111.188Z"></path>
<path d="M107.913 6.00687C107.266 6.00687 106.781 5.50352 106.781 4.87433C106.781 4.26312 107.266 3.75977 107.913 3.75977C108.542 3.75977 109.028 4.26312 109.028 4.87433C109.028 5.50352 108.542 6.00687 107.913 6.00687ZM106.924 16.4334V8.16409C106.924 8.0023 107.014 7.89444 107.176 7.89444H108.632C108.794 7.89444 108.884 8.0023 108.884 8.16409V16.4334C108.884 16.5952 108.794 16.7031 108.632 16.7031H107.176C107.014 16.7031 106.924 16.5952 106.924 16.4334Z"></path>
<path d="M103.182 16.7045C103.02 16.7045 102.93 16.5967 102.93 16.4349V4.12073C102.93 3.95894 103.02 3.85107 103.182 3.85107H104.62C104.782 3.85107 104.872 3.95894 104.872 4.12073V16.4349C104.872 16.5967 104.782 16.7045 104.62 16.7045H103.182Z"></path>
<path d="M93.2358 16.7036C93.074 16.7036 92.9841 16.5957 92.9841 16.4339V8.16457C92.9841 8.00278 93.074 7.89492 93.2358 7.89492H94.602C94.7638 7.89492 94.8537 7.96683 94.8537 8.18255L94.9256 9.26116C95.429 8.36232 96.3098 7.6792 97.694 7.6792C99.5636 7.6792 100.894 8.97353 100.894 11.2925V16.4339C100.894 16.5957 100.786 16.7036 100.624 16.7036H99.2041C99.0423 16.7036 98.9524 16.5957 98.9524 16.4339V11.6521C98.9524 10.2679 98.2693 9.47688 97.0289 9.47688C95.7885 9.47688 94.9256 10.2679 94.9256 11.6521V16.4339C94.9256 16.5957 94.8357 16.7036 94.6739 16.7036H93.2358Z"></path>
<path d="M84.6607 16.9371C81.0654 16.9371 78.207 14.0968 78.207 10.4655C78.207 6.81617 81.0654 3.97583 84.6607 3.97583C88.2561 3.97583 91.1144 6.81617 91.1144 10.4655C91.1144 14.0968 88.2561 16.9371 84.6607 16.9371ZM80.2384 10.4655C80.2384 13.0362 82.144 14.9597 84.6607 14.9597C87.1775 14.9597 89.065 13.0362 89.065 10.4655C89.065 7.87681 87.1775 5.95328 84.6607 5.95328C82.144 5.95328 80.2384 7.87681 80.2384 10.4655Z"></path>
</svg>
