<?xml version="1.0" encoding="UTF-8"?><svg id="Laag_2" xmlns="http://www.w3.org/2000/svg" viewBox="0 0 541.71 94.74"><defs><style>.cls-1,.cls-2{fill:#fff;}.cls-2{fill-rule:evenodd;}</style></defs><g id="Layer_1"><g><g><path class="cls-1" d="M41.89,58.72c0,4.83-1.71,8.79-5.12,11.88-3.42,3.09-7.62,4.64-12.61,4.64H0V18.29H22.45c4.88,0,8.99,1.5,12.32,4.51,3.34,3.01,5,6.85,5,11.51s-1.79,8.51-5.37,11.39c4.99,2.87,7.48,7.21,7.48,13.02ZM11.23,28.78v12.53h11.23c1.74,0,3.19-.6,4.35-1.79,1.17-1.19,1.75-2.68,1.75-4.47s-.57-3.28-1.71-4.47-2.6-1.79-4.39-1.79H11.23ZM28.88,62.83c1.25-1.27,1.87-2.89,1.87-4.84s-.62-3.48-1.87-4.76c-1.25-1.27-2.82-1.91-4.72-1.91H11.23v13.42h12.93c1.9,0,3.47-.64,4.72-1.91Z"/><path class="cls-1" d="M90.78,34.56v40.67h-10.49v-4.8c-3.15,3.96-7.57,5.94-13.26,5.94s-10.07-2.07-13.95-6.22c-3.88-4.15-5.82-9.23-5.82-15.25s1.94-11.1,5.82-15.25c3.88-4.15,8.53-6.22,13.95-6.22,5.69,0,10.11,1.98,13.26,5.94v-4.8h10.49Zm-13.71,28.59c2.14-2.14,3.21-4.89,3.21-8.26s-1.07-6.11-3.21-8.26c-2.14-2.14-4.84-3.21-8.09-3.21s-5.94,1.07-8.05,3.21c-2.11,2.14-3.17,4.89-3.17,8.26s1.06,6.11,3.17,8.26c2.12,2.14,4.8,3.21,8.05,3.21s5.95-1.07,8.09-3.21Z"/><path class="cls-1" d="M141.7,34.56v40.67h-10.49v-4.8c-3.15,3.96-7.57,5.94-13.26,5.94s-10.07-2.07-13.95-6.22c-3.88-4.15-5.82-9.23-5.82-15.25s1.94-11.1,5.82-15.25c3.88-4.15,8.53-6.22,13.95-6.22,5.69,0,10.11,1.98,13.26,5.94v-4.8h10.49Zm-13.71,28.59c2.14-2.14,3.21-4.89,3.21-8.26s-1.07-6.11-3.21-8.26c-2.14-2.14-4.84-3.21-8.09-3.21s-5.94,1.07-8.05,3.21c-2.11,2.14-3.17,4.89-3.17,8.26s1.06,6.11,3.17,8.26c2.12,2.14,4.8,3.21,8.05,3.21s5.95-1.07,8.09-3.21Z"/><path class="cls-1" d="M162.73,48.75c1.44,.68,3.19,1.27,5.25,1.79,2.06,.52,4.12,1.17,6.18,1.95,2.06,.79,3.81,2.10,5.25,3.94,1.44,1.84,2.16,4.15,2.16,6.92,0,4.18-1.56,7.39-4.68,9.64-3.12,2.25-7.01,3.38-11.67,3.38-8.35,0-14.05-3.23-17.08-9.68l9.11-5.12c1.19,3.53,3.85,5.29,7.97,5.29,3.74,0,5.61-1.17,5.61-3.5,0-1.08-.72-1.97-2.16-2.64-1.44-.68-3.19-1.29-5.25-1.83-2.06-.54-4.12-1.22-6.18-2.03s-3.81-2.10-5.25-3.86c-1.44-1.76-2.16-3.97-2.16-6.63,0-4.01,1.48-7.17,4.43-9.48,2.96-2.31,6.63-3.46,11.02-3.46,3.31,0,6.32,.75,9.03,2.24,2.71,1.49,4.85,3.62,6.43,6.39l-8.95,4.88c-1.30-2.77-3.47-4.15-6.51-4.15-1.36,0-2.48,.30-3.38,.89-.89,.60-1.34,1.41-1.34,2.44,0,1.08,.72,1.97,2.16,2.64Z"/></g><g><path class="cls-1" d="M402.04,58.72c0,4.83-1.71,8.79-5.12,11.88-3.42,3.09-7.62,4.64-12.61,4.64h-24.16V18.29h22.45c4.88,0,8.99,1.50,12.32,4.51s5,6.85,5,11.51-1.79,8.51-5.37,11.39c4.99,2.87,7.48,7.21,7.48,13.02Zm-30.67-29.94v12.53h11.22c1.74,0,3.19-.60,4.35-1.79,1.17-1.19,1.75-2.68,1.75-4.47s-.57-3.28-1.71-4.47c-1.14-1.19-2.60-1.79-4.39-1.79h-11.22Zm17.65,34.04c1.25-1.27,1.87-2.89,1.87-4.84s-.62-3.48-1.87-4.76-2.82-1.91-4.72-1.91h-12.93v13.42h12.93c1.90,0,3.47-.64,4.72-1.91Z"/><path class="cls-1" d="M450.93,34.56v40.67h-10.49v-4.8c-3.15,3.96-7.57,5.94-13.26,5.94s-10.07-2.07-13.95-6.22c-3.88-4.15-5.82-9.23-5.82-15.25s1.94-11.10,5.82-15.25c3.88-4.15,8.53-6.22,13.95-6.22,5.69,0,10.11,1.98,13.26,5.94v-4.8h10.49Zm-13.71,28.59c2.14-2.14,3.21-4.89,3.21-8.26s-1.07-6.11-3.21-8.26-4.84-3.21-8.09-3.21-5.94,1.07-8.05,3.21c-2.12,2.14-3.17,4.89-3.17,8.26s1.06,6.11,3.17,8.26c2.12,2.14,4.80,3.21,8.05,3.21s5.95-1.07,8.09-3.21Z"/><path class="cls-1" d="M501.85,34.56v40.67h-10.49v-4.8c-3.15,3.96-7.57,5.94-13.26,5.94s-10.07-2.07-13.95-6.22c-3.88-4.15-5.82-9.23-5.82-15.25s1.94-11.10,5.82-15.25c3.88-4.15,8.53-6.22,13.95-6.22,5.69,0,10.11,1.98,13.26,5.94v-4.8h10.49Zm-13.71,28.59c2.14-2.14,3.21-4.89,3.21-8.26s-1.07-6.11-3.21-8.26-4.84-3.21-8.09-3.21-5.94,1.07-8.05,3.21c-2.12,2.14-3.17,4.89-3.17,8.26s1.06,6.11,3.17,8.26c2.12,2.14,4.80,3.21,8.05,3.21s5.95-1.07,8.09-3.21Z"/><path class="cls-1" d="M522.88,48.75c1.44,.68,3.19,1.27,5.25,1.79,2.06,.52,4.12,1.17,6.18,1.95,2.06,.79,3.81,2.10,5.25,3.94,1.44,1.84,2.16,4.15,2.16,6.92,0,4.18-1.56,7.39-4.68,9.64-3.12,2.25-7.01,3.38-11.67,3.38-8.35,0-14.05-3.23-17.08-9.68l9.11-5.12c1.19,3.53,3.85,5.29,7.97,5.29,3.74,0,5.61-1.17,5.61-3.50,0-1.08-.72-1.97-2.16-2.64-1.44-.68-3.19-1.29-5.25-1.83-2.06-.54-4.12-1.22-6.18-2.03-2.06-.81-3.81-2.10-5.25-3.86-1.44-1.76-2.16-3.97-2.16-6.63,0-4.01,1.48-7.17,4.43-9.48,2.96-2.31,6.63-3.46,11.02-3.46,3.31,0,6.32,.75,9.03,2.24,2.71,1.49,4.85,3.62,6.43,6.39l-8.95,4.88c-1.30-2.77-3.47-4.15-6.51-4.15-1.36,0-2.48,.30-3.38,.89s-1.34,1.41-1.34,2.44c0,1.08,.72,1.97,2.16,2.64Z"/></g><path class="cls-2" d="M274.66,37.05L244.98,3.62c3.65-2.37,7.86-3.62,12.27-3.62,6.46,0,12.63,2.78,16.92,7.61,7.48,8.43,7.61,20.90,.48,29.44Zm-18.46,57.69c7.19,0,14.10-2.51,19.62-7.08l-40.80-45.97c-5.69,5.38-9.06,12.61-9.53,20.46-.50,8.21,2.24,16.11,7.70,22.25,5.82,6.57,14.22,10.34,23.01,10.34Zm46.02-55.98l-14.58,12.94,12.95,14.59,14.58-12.94-12.95-14.59Zm-13.08,53.85h25.83L239.96,8.05c-7.24,8.55-7.15,21.07,.39,29.56l48.79,54.99Z"/></g></g></svg>
