<svg xmlns="http://www.w3.org/2000/svg" xmlns:xlink="http://www.w3.org/1999/xlink" width="1200" zoomAndPan="magnify" viewBox="0 0 900 899.99999" height="1200" preserveAspectRatio="xMidYMid meet" version="1.0"><defs><g/><clipPath id="6dee943e74"><path d="M 422 274.183594 L 692 274.183594 L 692 414 L 422 414 Z M 422 274.183594 " clip-rule="nonzero"/></clipPath><clipPath id="9f4f3de99f"><path d="M 510 423 L 701.207031 423 L 701.207031 574 L 510 574 Z M 510 423 " clip-rule="nonzero"/></clipPath><clipPath id="4a7919a972"><path d="M 198.707031 289 L 496 289 L 496 574 L 198.707031 574 Z M 198.707031 289 " clip-rule="nonzero"/></clipPath></defs><g clip-path="url(#6dee943e74)"><path fill="#0866ff" d="M 551.824219 329.285156 C 584.78125 329.285156 613.800781 346.125 630.761719 371.660156 L 691.820312 371.660156 C 670.613281 314.949219 615.9375 274.570312 551.824219 274.570312 C 496.367188 274.570312 447.960938 304.785156 422.183594 349.648438 L 457.648438 413.925781 C 462.679688 366.355469 502.921875 329.285156 551.824219 329.285156 " fill-opacity="1" fill-rule="nonzero"/></g><g clip-path="url(#9f4f3de99f)"><path fill="#0866ff" d="M 544.058594 423.988281 L 544.058594 475.121094 L 631.546875 475.121094 C 614.707031 501.332031 585.292969 518.695312 551.824219 518.695312 C 536.863281 518.695312 522.71875 515.21875 510.136719 509.042969 L 545.582031 573.277344 C 547.65625 573.363281 549.734375 573.40625 551.824219 573.40625 C 634.34375 573.40625 701.238281 506.511719 701.238281 423.988281 L 544.058594 423.988281 " fill-opacity="1" fill-rule="nonzero"/></g><g clip-path="url(#4a7919a972)"><path fill="#0866ff" d="M 198.671875 573.40625 L 381.714844 573.40625 L 381.714844 519.289062 L 290.195312 519.289062 L 335.953125 407.078125 L 427.609375 573.40625 L 495.609375 573.40625 L 334.757812 289.296875 L 198.671875 573.40625 " fill-opacity="1" fill-rule="nonzero"/></g><g fill="#0866ff" fill-opacity="1"><g transform="translate(230.803411, 660.410793)"><g><path d="M 22.550781 -37.585938 C 26.09375 -37.585938 29.28125 -37.046875 32.109375 -35.972656 C 34.9375 -34.898438 37.183594 -33.316406 38.847656 -31.222656 C 40.511719 -29.128906 41.34375 -26.578125 41.34375 -23.570312 L 30.015625 -23.570312 C 30.015625 -25.109375 29.335938 -26.355469 27.972656 -27.300781 C 26.613281 -28.25 24.96875 -28.726562 23.035156 -28.726562 C 20.242188 -28.726562 18.128906 -27.984375 16.699219 -26.496094 C 15.265625 -25.011719 14.550781 -22.910156 14.550781 -20.1875 L 14.550781 -16.753906 C 14.550781 -14.03125 15.265625 -11.929688 16.699219 -10.441406 C 18.128906 -8.957031 20.242188 -8.214844 23.035156 -8.214844 C 24.96875 -8.214844 26.613281 -8.671875 27.972656 -9.585938 C 29.335938 -10.496094 30.015625 -11.667969 30.015625 -13.101562 L 21.636719 -13.101562 L 21.636719 -20.617188 L 41.34375 -20.617188 L 41.34375 0 L 35.222656 0 L 34.042969 -3.652344 C 30.675781 -0.789062 26.273438 0.644531 20.832031 0.644531 C 14.710938 0.644531 10.113281 -0.957031 7.035156 -4.160156 C 3.957031 -7.363281 2.417969 -12.132812 2.417969 -18.46875 C 2.417969 -24.734375 4.160156 -29.484375 7.652344 -32.726562 C 11.140625 -35.964844 16.109375 -37.585938 22.550781 -37.585938 Z M 22.550781 -37.585938 "/></g></g></g><g fill="#0866ff" fill-opacity="1"><g transform="translate(276.595626, 660.410793)"><g><path d="M 17.878906 -28.992188 C 22.855469 -28.992188 26.765625 -27.730469 29.613281 -25.207031 C 32.457031 -22.683594 33.878906 -19.007812 33.878906 -14.175781 C 33.878906 -9.34375 32.457031 -5.664062 29.613281 -3.140625 C 26.765625 -0.617188 22.855469 0.644531 17.878906 0.644531 C 12.902344 0.644531 9.003906 -0.609375 6.175781 -3.113281 C 3.347656 -5.621094 1.933594 -9.308594 1.933594 -14.175781 C 1.933594 -19.042969 3.347656 -22.730469 6.175781 -25.234375 C 9.003906 -27.742188 12.902344 -28.992188 17.878906 -28.992188 Z M 17.878906 -21.746094 C 14.371094 -21.746094 12.617188 -19.722656 12.617188 -15.679688 L 12.617188 -12.617188 C 12.617188 -8.609375 14.371094 -6.605469 17.878906 -6.605469 C 21.421875 -6.605469 23.195312 -8.609375 23.195312 -12.617188 L 23.195312 -15.679688 C 23.195312 -19.722656 21.421875 -21.746094 17.878906 -21.746094 Z M 17.878906 -21.746094 "/></g></g></g><g fill="#0866ff" fill-opacity="1"><g transform="translate(313.476373, 660.410793)"><g><path d="M 28.726562 0 L 27.167969 -5.207031 L 14.226562 -5.207031 L 12.671875 0 L 0.535156 0 L 14.015625 -36.941406 L 27.8125 -36.941406 L 41.289062 0 Z M 16.699219 -13.476562 L 24.699219 -13.476562 L 20.832031 -26.632812 L 20.617188 -26.632812 Z M 16.699219 -13.476562 "/></g></g></g><g fill="#0866ff" fill-opacity="1"><g transform="translate(356.315989, 660.410793)"><g><path d="M 23.839844 0 L 22.925781 -4.027344 C 20.851562 -0.914062 17.84375 0.644531 13.90625 0.644531 C 10.078125 0.644531 7.125 -0.609375 5.046875 -3.113281 C 2.972656 -5.621094 1.933594 -9.324219 1.933594 -14.226562 C 1.933594 -19.097656 2.972656 -22.773438 5.046875 -25.261719 C 7.125 -27.75 10.078125 -28.992188 13.90625 -28.992188 C 17.164062 -28.992188 19.8125 -27.902344 21.851562 -25.71875 L 21.851562 -38.925781 L 32.539062 -38.925781 L 32.539062 0 Z M 17.234375 -21.101562 C 14.15625 -21.101562 12.617188 -19.257812 12.617188 -15.570312 L 12.617188 -12.726562 C 12.617188 -9.074219 14.15625 -7.25 17.234375 -7.25 C 18.808594 -7.25 19.992188 -7.804688 20.777344 -8.914062 C 21.566406 -10.023438 21.960938 -11.472656 21.960938 -13.261719 L 21.960938 -15.035156 C 21.960938 -16.824219 21.566406 -18.28125 20.777344 -19.410156 C 19.992188 -20.539062 18.808594 -21.101562 17.234375 -21.101562 Z M 17.234375 -21.101562 "/></g></g></g><g fill="#0866ff" fill-opacity="1"><g transform="translate(393.196737, 660.410793)"><g><path d="M 16.699219 -28.992188 C 20.492188 -28.992188 23.707031 -28.25 26.335938 -26.765625 C 28.96875 -25.28125 30.28125 -22.980469 30.28125 -19.867188 L 20.347656 -19.867188 C 20.347656 -20.902344 19.882812 -21.636719 18.953125 -22.066406 C 18.308594 -22.425781 17.503906 -22.605469 16.539062 -22.605469 C 13.960938 -22.605469 12.671875 -21.996094 12.671875 -20.777344 C 12.671875 -20.097656 13.117188 -19.617188 14.015625 -19.328125 C 14.910156 -19.042969 16.375 -18.738281 18.417969 -18.417969 C 20.921875 -18.058594 23.015625 -17.636719 24.699219 -17.15625 C 26.382812 -16.671875 27.847656 -15.8125 29.101562 -14.578125 C 30.355469 -13.34375 30.980469 -11.617188 30.980469 -9.394531 C 30.980469 -5.78125 29.628906 -3.203125 26.925781 -1.664062 C 24.222656 -0.125 20.691406 0.644531 16.324219 0.644531 C 13.816406 0.644531 11.453125 0.296875 9.234375 -0.402344 C 7.015625 -1.101562 5.207031 -2.183594 3.8125 -3.652344 C 2.417969 -5.117188 1.71875 -6.980469 1.71875 -9.234375 L 11.652344 -9.234375 L 11.652344 -9.019531 C 11.6875 -7.804688 12.195312 -6.953125 13.179688 -6.46875 C 14.164062 -5.988281 15.210938 -5.746094 16.324219 -5.746094 C 19.292969 -5.746094 20.777344 -6.441406 20.777344 -7.839844 C 20.777344 -8.554688 20.3125 -9.074219 19.382812 -9.394531 C 18.453125 -9.71875 16.929688 -10.058594 14.820312 -10.417969 C 12.277344 -10.847656 10.191406 -11.3125 8.5625 -11.8125 C 6.933594 -12.3125 5.511719 -13.164062 4.296875 -14.363281 C 3.078125 -15.5625 2.46875 -17.234375 2.46875 -19.382812 C 2.46875 -22.855469 3.785156 -25.324219 6.417969 -26.792969 C 9.046875 -28.261719 12.472656 -28.992188 16.699219 -28.992188 Z M 16.699219 -28.992188 "/></g></g></g><g fill="#0866ff" fill-opacity="1"><g transform="translate(427.071223, 660.410793)"><g/></g></g><g fill="#0866ff" fill-opacity="1"><g transform="translate(446.021677, 660.410793)"><g><path d="M 28.726562 0 L 27.167969 -5.207031 L 14.226562 -5.207031 L 12.671875 0 L 0.535156 0 L 14.015625 -36.941406 L 27.8125 -36.941406 L 41.289062 0 Z M 16.699219 -13.476562 L 24.699219 -13.476562 L 20.832031 -26.632812 L 20.617188 -26.632812 Z M 16.699219 -13.476562 "/></g></g></g><g fill="#0866ff" fill-opacity="1"><g transform="translate(488.861282, 660.410793)"><g><path d="M 35.113281 -33.664062 C 35.113281 -31.480469 34.570312 -29.800781 33.476562 -28.617188 C 32.386719 -27.4375 30.746094 -26.558594 28.5625 -25.988281 C 29.601562 -25.199219 30.417969 -24.277344 31.007812 -23.222656 C 31.597656 -22.167969 31.894531 -21.046875 31.894531 -19.867188 C 31.894531 -16.859375 30.757812 -14.585938 28.484375 -13.046875 C 26.210938 -11.507812 23.375 -10.738281 19.972656 -10.738281 L 15.894531 -10.738281 C 13.636719 -10.738281 12.511719 -10.21875 12.511719 -9.179688 C 12.511719 -8.679688 12.761719 -8.277344 13.261719 -7.972656 C 13.761719 -7.667969 14.640625 -7.515625 15.894531 -7.515625 L 25.558594 -7.515625 C 28.707031 -7.515625 31.089844 -6.695312 32.699219 -5.046875 C 34.308594 -3.402344 35.113281 -1.199219 35.113281 1.558594 C 35.113281 3.597656 34.578125 5.351562 33.503906 6.820312 C 32.429688 8.285156 30.980469 9.394531 29.15625 10.148438 C 27.328125 10.898438 25.34375 11.277344 23.195312 11.277344 L 7.410156 11.277344 C 6.121094 11.277344 4.929688 10.972656 3.839844 10.363281 C 2.746094 9.753906 1.878906 8.921875 1.234375 7.867188 C 0.589844 6.808594 0.269531 5.636719 0.269531 4.347656 C 0.269531 2.953125 0.699219 1.691406 1.558594 0.5625 C 2.417969 -0.5625 3.488281 -1.414062 4.777344 -1.988281 C 3.917969 -2.59375 3.238281 -3.328125 2.738281 -4.1875 C 2.238281 -5.046875 1.988281 -5.976562 1.988281 -6.980469 C 1.988281 -8.375 2.503906 -9.636719 3.542969 -10.765625 C 4.582031 -11.894531 5.871094 -12.652344 7.410156 -13.046875 C 6.011719 -13.941406 4.902344 -14.972656 4.082031 -16.132812 C 3.257812 -17.296875 2.84375 -18.523438 2.84375 -19.8125 C 2.84375 -23.105469 4.179688 -25.460938 6.847656 -26.875 C 9.511719 -28.285156 13.046875 -28.992188 17.449219 -28.992188 C 19.382812 -28.992188 20.941406 -28.886719 22.121094 -28.671875 C 23.875 -29.78125 25.011719 -30.792969 25.53125 -31.707031 C 26.050781 -32.617188 26.308594 -33.269531 26.308594 -33.664062 Z M 17.34375 -23.410156 C 16.160156 -23.410156 15.195312 -23.105469 14.441406 -22.496094 C 13.691406 -21.886719 13.316406 -21.011719 13.316406 -19.867188 C 13.316406 -18.683594 13.664062 -17.800781 14.363281 -17.207031 C 15.0625 -16.617188 16.054688 -16.324219 17.34375 -16.324219 C 18.632812 -16.324219 19.640625 -16.617188 20.375 -17.207031 C 21.109375 -17.800781 21.476562 -18.683594 21.476562 -19.867188 C 21.476562 -21.046875 21.109375 -21.933594 20.375 -22.523438 C 19.640625 -23.113281 18.632812 -23.410156 17.34375 -23.410156 Z M 13.207031 0 C 12.386719 0 11.714844 0.222656 11.195312 0.671875 C 10.675781 1.117188 10.417969 1.753906 10.417969 2.578125 C 10.417969 3.402344 10.683594 4.0625 11.222656 4.5625 C 11.757812 5.066406 12.421875 5.316406 13.207031 5.316406 L 21.585938 5.316406 C 22.371094 5.316406 23.042969 5.074219 23.597656 4.589844 C 24.152344 4.109375 24.429688 3.453125 24.429688 2.632812 C 24.429688 1.808594 24.160156 1.164062 23.625 0.699219 C 23.085938 0.234375 22.40625 0 21.585938 0 Z M 13.207031 0 "/></g></g></g><g fill="#0866ff" fill-opacity="1"><g transform="translate(525.74204, 660.410793)"><g><path d="M 17.878906 -28.992188 C 23.070312 -28.992188 27.035156 -27.777344 29.773438 -25.34375 C 32.511719 -22.910156 33.878906 -19.1875 33.878906 -14.175781 L 33.878906 -12.347656 L 12.617188 -12.347656 C 12.617188 -10.308594 13.074219 -8.769531 13.988281 -7.730469 C 14.898438 -6.695312 16.339844 -6.175781 18.308594 -6.175781 C 20.097656 -6.175781 21.414062 -6.550781 22.253906 -7.300781 C 23.097656 -8.054688 23.515625 -9.054688 23.515625 -10.308594 L 33.878906 -10.308594 C 33.878906 -6.871094 32.574219 -4.1875 29.960938 -2.253906 C 27.347656 -0.320312 23.535156 0.644531 18.523438 0.644531 C 13.261719 0.644531 9.179688 -0.582031 6.28125 -3.035156 C 3.382812 -5.484375 1.933594 -9.199219 1.933594 -14.175781 C 1.933594 -19.042969 3.347656 -22.730469 6.175781 -25.234375 C 9.003906 -27.742188 12.902344 -28.992188 17.878906 -28.992188 Z M 18.308594 -22.175781 C 14.945312 -22.175781 13.066406 -20.582031 12.671875 -17.394531 L 23.085938 -17.394531 C 23.085938 -18.863281 22.667969 -20.027344 21.824219 -20.886719 C 20.984375 -21.746094 19.8125 -22.175781 18.308594 -22.175781 Z M 18.308594 -22.175781 "/></g></g></g><g fill="#0866ff" fill-opacity="1"><g transform="translate(562.622775, 660.410793)"><g><path d="M 22.765625 -28.992188 C 26.058594 -28.992188 28.527344 -28.082031 30.175781 -26.253906 C 31.820312 -24.429688 32.644531 -21.800781 32.644531 -18.363281 L 32.644531 0 L 21.960938 0 L 21.960938 -17.074219 C 21.960938 -18.292969 21.648438 -19.265625 21.019531 -20 C 20.394531 -20.734375 19.507812 -21.101562 18.363281 -21.101562 C 17.039062 -21.101562 15.964844 -20.671875 15.140625 -19.8125 C 14.316406 -18.953125 13.90625 -17.898438 13.90625 -16.644531 L 13.90625 0 L 3.222656 0 L 3.222656 -28.351562 L 11.972656 -28.351562 L 12.671875 -24.054688 C 13.78125 -25.558594 15.238281 -26.757812 17.046875 -27.652344 C 18.855469 -28.546875 20.761719 -28.992188 22.765625 -28.992188 Z M 22.765625 -28.992188 "/></g></g></g><g fill="#0866ff" fill-opacity="1"><g transform="translate(599.50351, 660.410793)"><g><path d="M 17.878906 -28.992188 C 22.53125 -28.992188 26.300781 -28 29.183594 -26.015625 C 32.0625 -24.027344 33.503906 -20.992188 33.503906 -16.914062 L 23.140625 -16.914062 C 23.140625 -20.132812 21.386719 -21.746094 17.878906 -21.746094 C 14.371094 -21.746094 12.617188 -19.722656 12.617188 -15.679688 L 12.617188 -12.617188 C 12.617188 -8.609375 14.441406 -6.605469 18.09375 -6.605469 C 21.746094 -6.605469 23.570312 -8.25 23.570312 -11.542969 L 33.503906 -11.542969 C 33.503906 -7.425781 32.0625 -4.367188 29.183594 -2.363281 C 26.300781 -0.359375 22.53125 0.644531 17.878906 0.644531 C 12.902344 0.644531 9.003906 -0.609375 6.175781 -3.113281 C 3.347656 -5.621094 1.933594 -9.308594 1.933594 -14.175781 C 1.933594 -19.042969 3.347656 -22.730469 6.175781 -25.234375 C 9.003906 -27.742188 12.902344 -28.992188 17.878906 -28.992188 Z M 17.878906 -28.992188 "/></g></g></g><g fill="#0866ff" fill-opacity="1"><g transform="translate(636.384291, 660.410793)"><g><path d="M 22.710938 -0.859375 C 21.246094 3.113281 19.445312 6.128906 17.316406 8.1875 C 15.1875 10.246094 12.207031 11.277344 8.375 11.277344 C 6.050781 11.277344 3.992188 10.953125 2.203125 10.308594 L 2.203125 3.917969 L 6.496094 3.917969 C 9.179688 3.917969 10.773438 2.613281 11.277344 0 L 0 -28.351562 L 11.488281 -28.351562 L 16.914062 -9.503906 L 17.289062 -9.503906 L 22.28125 -28.351562 L 32.804688 -28.351562 Z M 22.710938 -0.859375 "/></g></g></g></svg>