<svg xmlns="http://www.w3.org/2000/svg" xmlns:xlink="http://www.w3.org/1999/xlink" width="1080" zoomAndPan="magnify" viewBox="0 0 810 1439.999935" height="1920" preserveAspectRatio="xMidYMid meet" version="1.0"><defs><g/><clipPath id="c7c09bd3f3"><path d="M 371 518.183594 L 695 518.183594 L 695 686 L 371 686 Z M 371 518.183594 " clip-rule="nonzero"/></clipPath><clipPath id="fc7113e292"><path d="M 476 697 L 706.476562 697 L 706.476562 877 L 476 877 Z M 476 697 " clip-rule="nonzero"/></clipPath><clipPath id="bf1e885ea3"><path d="M 103.476562 536 L 460 536 L 460 877 L 103.476562 877 Z M 103.476562 536 " clip-rule="nonzero"/></clipPath></defs><g clip-path="url(#c7c09bd3f3)"><path fill="#0866ff" d="M 526.875 584.253906 C 566.398438 584.253906 601.191406 604.445312 621.527344 635.066406 L 694.742188 635.066406 C 669.3125 567.066406 603.753906 518.652344 526.875 518.652344 C 460.382812 518.652344 402.34375 554.882812 371.433594 608.671875 L 413.957031 685.746094 C 419.988281 628.703125 468.242188 584.253906 526.875 584.253906 " fill-opacity="1" fill-rule="nonzero"/></g><g clip-path="url(#fc7113e292)"><path fill="#0866ff" d="M 517.570312 697.808594 L 517.570312 759.117188 L 622.46875 759.117188 C 602.277344 790.542969 567.007812 811.363281 526.875 811.363281 C 508.941406 811.363281 491.980469 807.199219 476.894531 799.792969 L 519.394531 876.8125 C 521.878906 876.914062 524.375 876.964844 526.875 876.964844 C 625.820312 876.964844 706.035156 796.753906 706.035156 697.808594 L 517.570312 697.808594 " fill-opacity="1" fill-rule="nonzero"/></g><g clip-path="url(#bf1e885ea3)"><path fill="#0866ff" d="M 103.4375 876.964844 L 322.910156 876.964844 L 322.910156 812.078125 L 213.171875 812.078125 L 268.042969 677.53125 L 377.941406 876.964844 L 459.476562 876.964844 L 266.609375 536.308594 L 103.4375 876.964844 " fill-opacity="1" fill-rule="nonzero"/></g><g fill="#0866ff" fill-opacity="1"><g transform="translate(156.657924, 977.778711)"><g><path d="M 25.546875 -42.578125 C 29.5625 -42.578125 33.167969 -41.96875 36.375 -40.753906 C 39.578125 -39.535156 42.121094 -37.742188 44.007812 -35.371094 C 45.890625 -32.996094 46.835938 -30.109375 46.835938 -26.703125 L 34 -26.703125 C 34 -28.445312 33.230469 -29.855469 31.691406 -30.929688 C 30.148438 -32.003906 28.285156 -32.542969 26.09375 -32.542969 C 22.929688 -32.542969 20.539062 -31.699219 18.917969 -30.015625 C 17.292969 -28.335938 16.484375 -25.953125 16.484375 -22.871094 L 16.484375 -18.976562 C 16.484375 -15.894531 17.292969 -13.511719 18.917969 -11.832031 C 20.539062 -10.148438 22.929688 -9.304688 26.09375 -9.304688 C 28.285156 -9.304688 30.148438 -9.824219 31.691406 -10.855469 C 33.230469 -11.890625 34 -13.21875 34 -14.839844 L 24.511719 -14.839844 L 24.511719 -23.355469 L 46.835938 -23.355469 L 46.835938 0 L 39.902344 0 L 38.5625 -4.136719 C 34.75 -0.890625 29.765625 0.730469 23.601562 0.730469 C 16.667969 0.730469 11.457031 -1.085938 7.96875 -4.714844 C 4.480469 -8.34375 2.738281 -13.746094 2.738281 -20.921875 C 2.738281 -28.019531 4.714844 -33.402344 8.667969 -37.074219 C 12.621094 -40.742188 18.246094 -42.578125 25.546875 -42.578125 Z M 25.546875 -42.578125 "/></g></g></g><g fill="#0866ff" fill-opacity="1"><g transform="translate(208.537775, 977.778711)"><g><path d="M 20.253906 -32.84375 C 25.890625 -32.84375 30.320312 -31.417969 33.546875 -28.558594 C 36.769531 -25.699219 38.378906 -21.53125 38.378906 -16.058594 C 38.378906 -10.582031 36.769531 -6.417969 33.546875 -3.558594 C 30.320312 -0.699219 25.890625 0.730469 20.253906 0.730469 C 14.617188 0.730469 10.199219 -0.6875 6.996094 -3.527344 C 3.792969 -6.367188 2.191406 -10.542969 2.191406 -16.058594 C 2.191406 -21.574219 3.792969 -25.75 6.996094 -28.585938 C 10.199219 -31.425781 14.617188 -32.84375 20.253906 -32.84375 Z M 20.253906 -24.632812 C 16.28125 -24.632812 14.292969 -22.34375 14.292969 -17.761719 L 14.292969 -14.292969 C 14.292969 -9.753906 16.28125 -7.480469 20.253906 -7.480469 C 24.269531 -7.480469 26.277344 -9.753906 26.277344 -14.292969 L 26.277344 -17.761719 C 26.277344 -22.34375 24.269531 -24.632812 20.253906 -24.632812 Z M 20.253906 -24.632812 "/></g></g></g><g fill="#0866ff" fill-opacity="1"><g transform="translate(250.321444, 977.778711)"><g><path d="M 32.542969 0 L 30.777344 -5.898438 L 16.117188 -5.898438 L 14.355469 0 L 0.609375 0 L 15.875 -41.847656 L 31.507812 -41.847656 L 46.773438 0 Z M 18.917969 -15.265625 L 27.980469 -15.265625 L 23.601562 -30.167969 L 23.355469 -30.167969 Z M 18.917969 -15.265625 "/></g></g></g><g fill="#0866ff" fill-opacity="1"><g transform="translate(298.856176, 977.778711)"><g><path d="M 27.007812 0 L 25.972656 -4.5625 C 23.621094 -1.035156 20.214844 0.730469 15.753906 0.730469 C 11.414062 0.730469 8.070312 -0.6875 5.71875 -3.527344 C 3.367188 -6.367188 2.191406 -10.5625 2.191406 -16.117188 C 2.191406 -21.632812 3.367188 -25.800781 5.71875 -28.617188 C 8.070312 -31.4375 11.414062 -32.84375 15.753906 -32.84375 C 19.445312 -32.84375 22.445312 -31.609375 24.753906 -29.136719 L 24.753906 -44.097656 L 36.859375 -44.097656 L 36.859375 0 Z M 19.523438 -23.902344 C 16.039062 -23.902344 14.292969 -21.816406 14.292969 -17.640625 L 14.292969 -14.414062 C 14.292969 -10.28125 16.039062 -8.210938 19.523438 -8.210938 C 21.308594 -8.210938 22.648438 -8.839844 23.539062 -10.097656 C 24.429688 -11.355469 24.878906 -12.996094 24.878906 -15.023438 L 24.878906 -17.03125 C 24.878906 -19.058594 24.429688 -20.710938 23.539062 -21.988281 C 22.648438 -23.265625 21.308594 -23.902344 19.523438 -23.902344 Z M 19.523438 -23.902344 "/></g></g></g><g fill="#0866ff" fill-opacity="1"><g transform="translate(340.639845, 977.778711)"><g><path d="M 18.917969 -32.84375 C 23.214844 -32.84375 26.855469 -32.003906 29.835938 -30.320312 C 32.816406 -28.636719 34.304688 -26.03125 34.304688 -22.503906 L 23.050781 -22.503906 C 23.050781 -23.679688 22.527344 -24.511719 21.472656 -25 C 20.742188 -25.40625 19.828125 -25.605469 18.734375 -25.605469 C 15.816406 -25.605469 14.355469 -24.917969 14.355469 -23.539062 C 14.355469 -22.769531 14.863281 -22.222656 15.875 -21.898438 C 16.890625 -21.574219 18.550781 -21.226562 20.863281 -20.863281 C 23.703125 -20.457031 26.074219 -19.980469 27.980469 -19.433594 C 29.886719 -18.886719 31.546875 -17.914062 32.96875 -16.515625 C 34.386719 -15.113281 35.097656 -13.160156 35.097656 -10.644531 C 35.097656 -6.546875 33.566406 -3.628906 30.503906 -1.886719 C 27.441406 -0.140625 23.4375 0.730469 18.492188 0.730469 C 15.652344 0.730469 12.976562 0.335938 10.460938 -0.457031 C 7.949219 -1.246094 5.898438 -2.472656 4.320312 -4.136719 C 2.738281 -5.796875 1.945312 -7.90625 1.945312 -10.460938 L 13.199219 -10.460938 L 13.199219 -10.21875 C 13.238281 -8.839844 13.816406 -7.875 14.933594 -7.328125 C 16.046875 -6.78125 17.234375 -6.507812 18.492188 -6.507812 C 21.855469 -6.507812 23.539062 -7.300781 23.539062 -8.878906 C 23.539062 -9.691406 23.011719 -10.28125 21.957031 -10.644531 C 20.902344 -11.007812 19.179688 -11.394531 16.789062 -11.800781 C 13.910156 -12.285156 11.546875 -12.8125 9.703125 -13.382812 C 7.855469 -13.949219 6.246094 -14.914062 4.867188 -16.269531 C 3.488281 -17.628906 2.796875 -19.523438 2.796875 -21.957031 C 2.796875 -25.890625 4.289062 -28.6875 7.269531 -30.351562 C 10.25 -32.015625 14.132812 -32.84375 18.917969 -32.84375 Z M 18.917969 -32.84375 "/></g></g></g><g fill="#0866ff" fill-opacity="1"><g transform="translate(379.017569, 977.778711)"><g/></g></g><g fill="#0866ff" fill-opacity="1"><g transform="translate(400.487255, 977.778711)"><g><path d="M 32.542969 0 L 30.777344 -5.898438 L 16.117188 -5.898438 L 14.355469 0 L 0.609375 0 L 15.875 -41.847656 L 31.507812 -41.847656 L 46.773438 0 Z M 18.917969 -15.265625 L 27.980469 -15.265625 L 23.601562 -30.167969 L 23.355469 -30.167969 Z M 18.917969 -15.265625 "/></g></g></g><g fill="#0866ff" fill-opacity="1"><g transform="translate(449.021987, 977.778711)"><g><path d="M 39.78125 -38.136719 C 39.78125 -35.664062 39.160156 -33.757812 37.925781 -32.417969 C 36.6875 -31.082031 34.832031 -30.089844 32.359375 -29.4375 C 33.535156 -28.546875 34.457031 -27.503906 35.125 -26.308594 C 35.796875 -25.109375 36.128906 -23.84375 36.128906 -22.503906 C 36.128906 -19.097656 34.84375 -16.523438 32.269531 -14.78125 C 29.691406 -13.035156 26.480469 -12.164062 22.625 -12.164062 L 18.003906 -12.164062 C 15.449219 -12.164062 14.171875 -11.578125 14.171875 -10.402344 C 14.171875 -9.832031 14.457031 -9.378906 15.023438 -9.03125 C 15.589844 -8.6875 16.585938 -8.515625 18.003906 -8.515625 L 28.953125 -8.515625 C 32.519531 -8.515625 35.21875 -7.582031 37.042969 -5.71875 C 38.867188 -3.851562 39.78125 -1.359375 39.78125 1.765625 C 39.78125 4.074219 39.171875 6.0625 37.953125 7.726562 C 36.738281 9.386719 35.097656 10.644531 33.027344 11.496094 C 30.960938 12.347656 28.710938 12.773438 26.277344 12.773438 L 8.394531 12.773438 C 6.933594 12.773438 5.585938 12.429688 4.347656 11.738281 C 3.113281 11.050781 2.128906 10.105469 1.398438 8.910156 C 0.667969 7.714844 0.304688 6.386719 0.304688 4.925781 C 0.304688 3.34375 0.789062 1.914062 1.765625 0.636719 C 2.738281 -0.636719 3.953125 -1.601562 5.414062 -2.25 C 4.441406 -2.941406 3.667969 -3.769531 3.101562 -4.746094 C 2.535156 -5.71875 2.25 -6.773438 2.25 -7.90625 C 2.25 -9.488281 2.839844 -10.917969 4.015625 -12.195312 C 5.191406 -13.472656 6.648438 -14.335938 8.394531 -14.78125 C 6.8125 -15.792969 5.554688 -16.960938 4.621094 -18.277344 C 3.691406 -19.597656 3.222656 -20.984375 3.222656 -22.445312 C 3.222656 -26.175781 4.734375 -28.839844 7.753906 -30.441406 C 10.777344 -32.042969 14.78125 -32.84375 19.769531 -32.84375 C 21.957031 -32.84375 23.722656 -32.722656 25.058594 -32.480469 C 27.046875 -33.738281 28.335938 -34.882812 28.921875 -35.917969 C 29.511719 -36.953125 29.804688 -37.691406 29.804688 -38.136719 Z M 19.644531 -26.519531 C 18.308594 -26.519531 17.214844 -26.175781 16.363281 -25.484375 C 15.511719 -24.796875 15.085938 -23.804688 15.085938 -22.503906 C 15.085938 -21.167969 15.480469 -20.164062 16.269531 -19.496094 C 17.0625 -18.824219 18.1875 -18.492188 19.644531 -18.492188 C 21.105469 -18.492188 22.25 -18.824219 23.082031 -19.496094 C 23.914062 -20.164062 24.328125 -21.167969 24.328125 -22.503906 C 24.328125 -23.84375 23.914062 -24.847656 23.082031 -25.515625 C 22.25 -26.183594 21.105469 -26.519531 19.644531 -26.519531 Z M 14.964844 0 C 14.03125 0 13.269531 0.253906 12.683594 0.761719 C 12.09375 1.265625 11.800781 1.988281 11.800781 2.917969 C 11.800781 3.851562 12.105469 4.601562 12.710938 5.171875 C 13.320312 5.738281 14.070312 6.023438 14.964844 6.023438 L 24.453125 6.023438 C 25.34375 6.023438 26.105469 5.746094 26.734375 5.199219 C 27.359375 4.652344 27.675781 3.914062 27.675781 2.980469 C 27.675781 2.046875 27.371094 1.316406 26.761719 0.789062 C 26.15625 0.261719 25.382812 0 24.453125 0 Z M 14.964844 0 "/></g></g></g><g fill="#0866ff" fill-opacity="1"><g transform="translate(490.805645, 977.778711)"><g><path d="M 20.253906 -32.84375 C 26.132812 -32.84375 30.625 -31.464844 33.726562 -28.710938 C 36.828125 -25.953125 38.378906 -21.734375 38.378906 -16.058594 L 38.378906 -13.988281 L 14.292969 -13.988281 C 14.292969 -11.679688 14.8125 -9.933594 15.84375 -8.757812 C 16.878906 -7.582031 18.511719 -6.996094 20.742188 -6.996094 C 22.769531 -6.996094 24.257812 -7.421875 25.210938 -8.273438 C 26.164062 -9.125 26.640625 -10.257812 26.640625 -11.679688 L 38.378906 -11.679688 C 38.378906 -7.785156 36.902344 -4.746094 33.941406 -2.554688 C 30.980469 -0.363281 26.660156 0.730469 20.984375 0.730469 C 15.023438 0.730469 10.402344 -0.660156 7.117188 -3.4375 C 3.832031 -6.214844 2.191406 -10.421875 2.191406 -16.058594 C 2.191406 -21.574219 3.792969 -25.75 6.996094 -28.585938 C 10.199219 -31.425781 14.617188 -32.84375 20.253906 -32.84375 Z M 20.742188 -25.121094 C 16.929688 -25.121094 14.800781 -23.316406 14.355469 -19.707031 L 26.15625 -19.707031 C 26.15625 -21.371094 25.679688 -22.6875 24.726562 -23.660156 C 23.773438 -24.632812 22.445312 -25.121094 20.742188 -25.121094 Z M 20.742188 -25.121094 "/></g></g></g><g fill="#0866ff" fill-opacity="1"><g transform="translate(532.589325, 977.778711)"><g><path d="M 25.789062 -32.84375 C 29.519531 -32.84375 32.316406 -31.8125 34.183594 -29.742188 C 36.050781 -27.675781 36.980469 -24.695312 36.980469 -20.800781 L 36.980469 0 L 24.878906 0 L 24.878906 -19.34375 C 24.878906 -20.722656 24.523438 -21.824219 23.8125 -22.65625 C 23.101562 -23.488281 22.101562 -23.902344 20.800781 -23.902344 C 19.300781 -23.902344 18.085938 -23.417969 17.152344 -22.445312 C 16.21875 -21.472656 15.753906 -20.273438 15.753906 -18.855469 L 15.753906 0 L 3.648438 0 L 3.648438 -32.117188 L 13.5625 -32.117188 L 14.355469 -27.25 C 15.613281 -28.953125 17.265625 -30.3125 19.3125 -31.324219 C 21.359375 -32.339844 23.519531 -32.84375 25.789062 -32.84375 Z M 25.789062 -32.84375 "/></g></g></g><g fill="#0866ff" fill-opacity="1"><g transform="translate(574.373005, 977.778711)"><g><path d="M 20.253906 -32.84375 C 25.527344 -32.84375 29.792969 -31.71875 33.058594 -29.46875 C 36.324219 -27.21875 37.953125 -23.78125 37.953125 -19.160156 L 26.214844 -19.160156 C 26.214844 -22.808594 24.230469 -24.632812 20.253906 -24.632812 C 16.28125 -24.632812 14.292969 -22.34375 14.292969 -17.761719 L 14.292969 -14.292969 C 14.292969 -9.753906 16.363281 -7.480469 20.496094 -7.480469 C 24.632812 -7.480469 26.703125 -9.347656 26.703125 -13.078125 L 37.953125 -13.078125 C 37.953125 -8.414062 36.324219 -4.945312 33.058594 -2.675781 C 29.792969 -0.40625 25.527344 0.730469 20.253906 0.730469 C 14.617188 0.730469 10.199219 -0.6875 6.996094 -3.527344 C 3.792969 -6.367188 2.191406 -10.542969 2.191406 -16.058594 C 2.191406 -21.574219 3.792969 -25.75 6.996094 -28.585938 C 10.199219 -31.425781 14.617188 -32.84375 20.253906 -32.84375 Z M 20.253906 -32.84375 "/></g></g></g><g fill="#0866ff" fill-opacity="1"><g transform="translate(616.156662, 977.778711)"><g><path d="M 25.730469 -0.972656 C 24.066406 3.527344 22.027344 6.945312 19.617188 9.277344 C 17.203125 11.609375 13.828125 12.773438 9.488281 12.773438 C 6.851562 12.773438 4.519531 12.410156 2.492188 11.679688 L 2.492188 4.441406 L 7.359375 4.441406 C 10.402344 4.441406 12.207031 2.960938 12.773438 0 L 0 -32.117188 L 13.015625 -32.117188 L 19.160156 -10.765625 L 19.585938 -10.765625 L 25.242188 -32.117188 L 37.164062 -32.117188 Z M 25.730469 -0.972656 "/></g></g></g></svg>