<svg xmlns:xlink="http://www.w3.org/1999/xlink" xmlns="http://www.w3.org/2000/svg" width="177.14" height="32" viewBox="0 0 155 28" fill="none">
<path d="M139.397 3.00922C133.35 3.00922 128.428 7.96239 128.428 14.0502C128.428 14.1505 128.433 14.2509 128.443 14.3477H128.438V20.0161H134.583V14.3876C134.596 14.2769 134.603 14.1635 134.603 14.0502C134.603 11.3881 136.753 9.22363 139.397 9.22363C140.327 9.22391 141.236 9.49574 142.015 10.0061C142.794 10.5165 143.409 11.2435 143.785 12.0988C143.884 12.3204 144.008 12.5293 144.156 12.7213L149.376 9.47039C147.595 5.54203 143.695 3.00922 139.397 3.00922Z" fill="#1E1E1E"/>
<path d="M149.038 13.2072C149.038 13.2072 148.008 18.1769 148.851 19.7463C149.697 21.3157 151.702 21.9412 153.291 21.0746C154.883 20.2077 155.455 18.1769 154.611 16.6072C153.767 15.0378 149.038 13.2072 149.038 13.2072Z" fill="#1E1E1E"/>
<path d="M113.574 2.98767C107.506 2.98767 102.572 7.95383 102.572 14.0611C102.572 20.0967 107.449 25.0646 113.448 25.1325H115.688V19.1005C114.901 19.0588 113.891 18.9966 113.19 18.924C113.046 18.9133 112.904 18.896 112.762 18.872C112.701 18.8648 112.641 18.8549 112.582 18.8422C112.548 18.8357 112.514 18.8274 112.481 18.8218C112.47 18.817 112.459 18.8138 112.447 18.8124C110.329 18.3038 108.723 16.3607 108.723 14.0605C108.723 11.3677 110.898 9.1038 113.574 9.17729C114.651 9.20592 115.53 9.49725 116.309 10.0365C117.389 10.7827 118.104 11.9424 118.104 13.3264C118.104 15.1951 116.796 16.7501 115.053 17.1338V17.2424C115.565 17.2492 116.254 17.2268 117.192 17.2268H124.116L124.12 17.225C124.423 16.1978 124.577 15.1316 124.576 14.0599C124.575 7.95383 119.641 2.98767 113.574 2.98767Z" fill="#1E1E1E"/>
<path d="M21.8567 14.0667C21.8567 13.9244 21.8514 13.7813 21.8465 13.6405V0H15.6712V4.15888C14.1923 3.44 12.5707 3.06792 10.9284 3.07061C4.89244 3.07061 0 7.99456 0 14.0667C0 20.1406 4.89244 25.0646 10.9284 25.0646C16.9643 25.0646 21.8567 20.1406 21.8567 14.0667ZM6.16761 14.0685C6.16761 11.4232 8.30002 9.27824 10.9275 9.27824C13.5576 9.27824 15.6868 11.4238 15.6868 14.0685C15.6868 16.7132 13.5576 18.859 10.9275 18.859C8.30002 18.8593 6.16761 16.7138 6.16761 14.0685Z" fill="#1E1E1E"/>
<path d="M47.1831 14.023C47.1831 7.94909 42.2907 3.02661 36.2565 3.02661C30.2206 3.02661 25.3281 7.94909 25.3281 14.023C25.3281 20.0966 30.2206 25.0209 36.2565 25.0209C42.2909 25.0206 47.1831 20.0966 47.1831 14.023ZM31.4872 14.0685C31.4872 11.4232 33.6173 9.27822 36.2465 9.27822C38.8749 9.27822 41.0073 11.4238 41.0073 14.0685C41.0073 16.7131 38.8749 18.859 36.2465 18.859C33.617 18.8593 31.4872 16.7137 31.4872 14.0685Z" fill="#1E1E1E"/>
<path d="M57.4581 23.9362C58.937 24.6528 60.5577 25.0241 62.1992 25.0224C68.2333 25.0224 73.1258 20.0993 73.1258 14.0254C73.1258 7.95148 68.2333 3.02753 62.1992 3.02753C56.1641 3.02753 51.2734 7.95148 51.2734 14.0254C51.2734 14.1594 51.2778 14.2925 51.2828 14.4253V28H57.4581V23.9362ZM57.4548 14.0254C57.4548 11.3872 59.5787 9.24814 62.1995 9.24814C64.8208 9.24814 66.9458 11.3866 66.9458 14.0254C66.9458 16.6636 64.8208 18.8021 62.1992 18.8021C59.5787 18.8021 57.4548 16.6636 57.4548 14.0254Z" fill="#1E1E1E"/>
<path d="M83.0457 23.9362C84.5244 24.653 86.145 25.0243 87.7863 25.0224C93.8213 25.0224 98.7126 20.0993 98.7126 14.0254C98.7126 7.95148 93.8213 3.02753 87.7863 3.02753C81.7518 3.02753 76.8594 7.95148 76.8594 14.0254C76.8594 14.1594 76.8647 14.2925 76.8705 14.4253V28H83.0457V23.9362ZM83.0384 14.0254C83.0384 11.3872 85.1647 9.24814 87.7863 9.24814C90.4076 9.24814 92.5327 11.3866 92.5327 14.0254C92.5327 16.6636 90.4073 18.8021 87.7863 18.8021C85.1647 18.8021 83.0384 16.6636 83.0384 14.0254Z" fill="#1E1E1E"/>
</svg>