<svg xmlns:xlink="http://www.w3.org/1999/xlink" xmlns="http://www.w3.org/2000/svg" width="202.29" height="32" viewBox="0 0 177 28" fill="none" class="default-logo" aria-label="Traffic Today" role="img">
  <path d="M65.4435 5.43223C65.4554 4.24372 64.6314 3.4177 63.4428 3.43157C62.2543 3.41968 61.4283 4.24372 61.4422 5.43223C61.4303 6.61876 62.2543 7.44675 63.4428 7.43289C64.6314 7.44477 65.4574 6.62074 65.4435 5.43223Z" fill="#EC3447"></path>
  <path d="M5.1106 8.80758H0V5.44409H14.1809V8.80758H9.07032V22.6141H5.10862L5.1106 8.80758Z" fill="#EC3447"></path>
  <path d="M15.0347 8.80761H18.8993V10.4775C19.5986 9.35829 21.1179 8.60754 22.663 8.60754C23.3364 8.60754 23.8594 8.68282 24.3328 8.85515V12.5435C23.8099 12.3454 23.1879 12.2186 22.5144 12.2186C20.6207 12.2186 18.9013 13.6884 18.9013 17.6026V22.6122H15.0367L15.0327 8.80563L15.0347 8.80761Z" fill="#EC3447"></path>
  <path d="M25.228 15.711C25.228 11.3491 27.918 8.60962 31.8322 8.60962C33.5535 8.60962 35.0729 9.25736 35.8949 10.327V8.8077H39.7596V22.6142H35.8949V21.0949C35.0729 22.1685 33.6011 22.8123 31.8837 22.8123C27.922 22.8123 25.228 20.0708 25.228 15.711ZM32.5057 19.5241C34.5222 19.5241 35.8949 18.0048 35.8949 15.711C35.8949 13.4171 34.5222 11.8721 32.5057 11.8721C30.4892 11.8721 29.1164 13.4171 29.1164 15.711C29.1164 18.0048 30.4892 19.5241 32.5057 19.5241Z" fill="#EC3447"></path>
  <path d="M48.7923 3.19983C49.6639 3.19983 50.4879 3.3266 50.8346 3.47319V6.71386C50.4602 6.56332 50.0125 6.46625 49.6144 6.46625C48.5665 6.46625 47.893 7.16549 47.893 8.35995V8.8096H50.7851V11.9255H47.893V22.6161H44.0541V11.9255H41.8871V8.8096H44.0541V8.08659C44.0541 5.02221 46.0231 3.20379 48.7904 3.20379L48.7923 3.19983Z" fill="#EC3447"></path>
  <path d="M67.6857 15.711C67.6857 11.5492 70.653 8.60962 74.8128 8.60962C78.4754 8.60962 81.0921 10.6519 81.4427 14.0431H77.5286C77.3047 12.7714 76.2568 11.876 74.8128 11.876C72.9686 11.876 71.5979 13.3954 71.5979 15.7149C71.5979 18.0088 72.9706 19.5281 74.8128 19.5281C76.3083 19.5281 77.4057 18.6565 77.6296 17.4601H81.516C81.2426 20.4987 78.6497 22.8183 74.8108 22.8183C70.6471 22.8183 67.6837 19.8549 67.6837 15.7169L67.6857 15.711Z" fill="#EC3447"></path>
  <path d="M85.3748 8.80758H80.2642V5.44409H94.4451V8.80758H89.3345V22.6141H85.3728L85.3748 8.80758Z" fill="#EC3447"></path>
  <path d="M93.4646 15.711C93.4646 11.5492 96.529 8.60962 100.768 8.60962C105.007 8.60962 108.071 11.5512 108.071 15.711C108.071 19.8708 105.007 22.8123 100.768 22.8123C96.529 22.8123 93.4646 19.8708 93.4646 15.711ZM100.768 19.5241C102.786 19.5241 104.157 18.0048 104.157 15.711C104.157 13.4171 102.786 11.8721 100.768 11.8721C98.7495 11.8721 97.3788 13.4171 97.3788 15.711C97.3788 18.0048 98.7515 19.5241 100.768 19.5241Z" fill="#EC3447"></path>
  <path d="M109.783 15.7108C109.783 11.349 112.473 8.60944 116.389 8.60944C118.11 8.60944 119.63 9.25718 120.45 10.3268V5.43018H124.314V22.6121H120.45V21.0928C119.63 22.1664 118.156 22.8102 116.438 22.8102C112.477 22.8102 109.783 20.0687 109.783 15.7088V15.7108ZM117.06 19.5239C119.077 19.5239 120.45 18.0046 120.45 15.7108C120.45 13.417 119.079 11.8719 117.06 11.8719C115.042 11.8719 113.671 13.417 113.671 15.7108C113.671 18.0046 115.042 19.5239 117.06 19.5239Z" fill="#EC3447"></path>
  <path d="M126.671 15.711C126.671 11.3491 129.361 8.60962 133.276 8.60962C134.997 8.60962 136.516 9.25736 137.338 10.327V8.8077H141.201V22.6142H137.338V21.0949C136.516 22.1685 135.044 22.8123 133.325 22.8123C129.365 22.8123 126.671 20.0708 126.671 15.711ZM133.949 19.5241C135.966 19.5241 137.338 18.0048 137.338 15.711C137.338 13.4171 135.966 11.8721 133.949 11.8721C131.933 11.8721 130.56 13.4171 130.56 15.711C130.56 18.0048 131.931 19.5241 133.949 19.5241Z" fill="#EC3447"></path>
  <path d="M143.586 26.6254V23.4343C144.533 23.8839 145.258 24.0562 145.805 24.0562C146.601 24.0562 147.5 23.7829 147.896 22.735L148.146 22.0873L142.764 8.80566H146.775L150.063 17.3035L153.427 8.80566H157.363L151.208 24.082C150.362 26.15 148.592 27.1979 146.026 27.1979C145.353 27.1979 144.434 26.974 143.586 26.6254Z" fill="#EC3447"></path>
  <path d="M56.7534 8.80765V8.358C56.7534 7.16156 57.4269 6.4643 58.4748 6.4643C58.8749 6.4643 59.3206 6.56532 59.695 6.71191V3.47123C59.3464 3.32069 58.5243 3.19788 57.6527 3.19788C54.8874 3.19788 52.9165 5.0163 52.9165 8.08068V22.6082H56.7554V11.9156H61.5094V22.6082H65.3741V8.80765H56.7534Z" fill="#EC3447"></path>
</svg>