<svg xmlns:xlink="http://www.w3.org/1999/xlink" xmlns="http://www.w3.org/2000/svg" width="102.26" height="32" viewBox="0 0 147 46" fill="none">
<path d="M71.8451 45.9684C64.8382 45.7147 57.6402 44.0157 50.2814 40.8785C47.2866 39.6018 44.1192 38.0203 40.8962 36.1922C38.7705 34.9866 33.9046 32.0254 33.6337 31.7726C33.4632 31.6135 33.3965 31.4643 33.3965 31.2423C33.3965 30.8314 33.6935 30.5379 34.1086 30.5385C34.3237 30.5388 34.3757 30.5614 34.8839 30.8746C36.9231 32.1313 39.7438 33.5549 42.4923 34.7144C55.2927 40.1147 70.4576 42.0111 85.0148 40.0317C94.9563 38.68 104.512 35.5171 111.966 31.111C113.042 30.4753 113.141 30.4419 113.463 30.607C113.908 30.835 114.005 31.3933 113.658 31.7348C113.522 31.869 113.354 31.9756 110.908 33.4861C104.382 37.5145 99.1135 40.1741 93.6279 42.209C86.2496 44.9461 78.8556 46.2222 71.8451 45.9684Z" fill="#1E1E1E"/>
<path fill-rule="evenodd" clip-rule="evenodd" d="M0 0.710965C0 0.710965 0.137974 1.14273 0.271436 2.36979C0.43143 5.42655 0.439912 7.96029 0.458405 10.7854C0.495243 12.9671 0.473693 15.0929 0.45473 17.1399C0.441941 18.5261 0.432298 19.2818 0.432298 20.5422C0.432298 24.2928 0.133094 26.9216 0.133094 26.9216C0.133094 26.9216 2.92193 27.5182 7.1314 27.5182C11.3423 27.5182 15.8102 26.0694 18.3883 23.8956C20.9658 21.7219 23.2854 18.6104 23.2854 13.0278C23.2854 7.44505 20.8798 4.37629 17.7009 2.37356C14.5212 0.369914 9.66656 -0.0130317 5.92853 0.15715C2.1914 0.328019 0.129316 0.710965 0 0.710965ZM146.412 21.7219L140.788 20.4011C139.312 21.8494 137.718 22.5691 135.671 22.5316C131.456 22.4549 129.361 19.9901 128.582 15.9255H146.711C146.969 14.4766 147.053 12.9423 146.968 11.4934C146.796 8.56684 145.89 5.87322 144.047 3.56674C142.222 1.28324 139.084 0.0856914 135.203 0.114336C131.56 0.141754 128.581 1.38051 126.224 3.86529C124.008 6.19957 122.682 9.75933 122.743 14.3913C122.803 18.7917 123.931 22.068 126.696 24.748C128.621 26.6138 131.208 27.6103 134.601 27.6031C141.067 27.4096 143.754 25.3422 146.412 21.7219ZM141.808 11.4087H128.795C129.024 8.06962 132.106 4.95976 135.371 4.97515C138.75 4.99055 141.653 7.38837 141.808 11.4087ZM84.7421 5.16677C89.0459 5.16677 92.5359 9.03166 92.5359 13.7975C92.5359 18.5633 89.0459 22.4284 84.7421 22.4284C80.4399 22.4284 76.9492 18.5633 76.9492 13.7975C76.9492 9.03166 80.4399 5.16677 84.7421 5.16677ZM84.9098 0C92.1317 0 97.9876 6.22454 97.9876 13.7975C97.9876 21.3705 91.9641 27.5117 84.7421 27.5117C77.5217 27.5117 71.6652 21.3705 71.6652 13.7975C71.6652 6.22454 77.6893 0 84.9098 0ZM99.1208 26.5805H104.959V9.06398C110.301 13.7098 114.237 19.549 116.6 26.5805L121.615 26.6103V0.881148L116.025 0.881155L116.019 13.4866C114.269 10.583 112.125 8.19494 110.018 6.1363C107.908 4.07445 106.194 2.32857 104.057 0.881155H99.1208L99.1208 26.5805ZM48.1176 26.5805H53.7886V9.06398C59.1304 13.7098 62.9835 19.549 65.3462 26.5805H70.4155V0.881146H64.7439V13.2812C61.4486 8.57136 57.4565 4.34091 52.8871 0.881146H48.1176V26.5805ZM31.9213 0.881146H37.4205C42.7603 6.74166 46.0289 15.2656 47.1302 26.5805H41.1579C41.0027 24.6153 40.7606 22.8092 40.4323 20.9957H28.6429C28.3155 22.8063 28.0756 24.6123 27.9257 26.5805H22.1257C23.1719 15.1974 26.6768 6.38981 31.9213 0.881146ZM39.3319 16.1819C38.05 12.1203 36.5237 8.77891 34.4579 5.69715C32.4054 8.79086 30.8001 12.2787 29.6656 16.1819H39.3319ZM5.97851 5.18591C5.97851 5.18591 7.13137 5.1431 8.54973 5.1431C9.96786 5.1431 13.0653 5.39891 15.3419 7.61523C17.6186 9.83163 17.6618 12.3457 17.6618 14.0936C17.6618 15.8409 17.0564 19.6337 13.3183 21.3382C9.58098 23.0435 5.93558 22.4041 5.93558 22.4041L5.97851 5.18591Z" fill="#1E1E1E"/>
</svg>