<svg xmlns:xlink="http://www.w3.org/1999/xlink" xmlns="http://www.w3.org/2000/svg" width="229.57" viewBox="0 0 165 23" fill="none" class="nav_logo" height="32" ><g clip-path="url(#clip0_1125_29841)" fill="none"><path d="M57.0391 17.6832V5.53387H58.4577V17.6832H57.0391ZM64.476 17.6832V9.96163C64.476 9.66482 64.4532 9.32996 64.4075 8.9601C64.3618 8.59023 64.2568 8.23406 64.0924 7.89006C63.928 7.54759 63.6708 7.26296 63.3207 7.03769C62.9691 6.81243 62.4851 6.69979 61.8671 6.69979C61.2187 6.69979 60.6769 6.82765 60.2431 7.08336C59.8077 7.33907 59.4592 7.66936 59.1959 8.07272C58.9325 8.47759 58.7438 8.90834 58.6296 9.36497C58.5155 9.82312 58.4577 10.2539 58.4577 10.6572L57.6114 10.3254C57.6114 9.44869 57.794 8.63437 58.1608 7.88246C58.5261 7.13206 59.0467 6.52323 59.7225 6.05747C60.3968 5.59171 61.2005 5.36035 62.1305 5.36035C63.0605 5.36035 63.7439 5.53691 64.2918 5.89156C64.8413 6.24621 65.2431 6.74241 65.4988 7.37864C65.7546 8.01488 65.8824 8.7607 65.8824 9.61459V17.6802H64.476V17.6832ZM71.8886 17.6832V9.90379C71.8886 9.61459 71.8688 9.28734 71.8307 8.92509C71.7927 8.56283 71.6907 8.21427 71.5278 7.87789C71.3635 7.54303 71.1001 7.26144 70.7379 7.03769C70.3756 6.81243 69.8703 6.69979 69.2219 6.69979C68.5735 6.69979 68.0316 6.82612 67.5978 7.07727C67.164 7.32841 66.82 7.6511 66.5689 8.0438C66.3177 8.4365 66.1396 8.84898 66.0377 9.27973C65.9342 9.71049 65.8839 10.1017 65.8839 10.4517L65.0377 10.1428C65.0377 9.32692 65.2142 8.5537 65.5689 7.82614C65.9235 7.09858 66.4319 6.50496 67.0955 6.04681C67.7591 5.58866 68.5598 5.36035 69.4974 5.36035C70.336 5.36035 71.0362 5.52017 71.5963 5.84133C72.1565 6.16097 72.5796 6.61912 72.8658 7.21426C73.1519 7.80939 73.295 8.53391 73.295 9.3878V17.6817H71.8886V17.6832Z" fill="#1F2025"></path><path d="M81.2588 17.9009C80.3288 17.9009 79.5161 17.7593 78.822 17.4777C78.1279 17.1961 77.5921 16.7852 77.2147 16.2479C76.8372 15.7106 76.6484 15.0606 76.6484 14.2981C76.6484 13.5355 76.8463 12.8856 77.2436 12.3711C77.6393 11.8566 78.207 11.4548 78.9422 11.1641C79.6789 10.8749 80.5496 10.6801 81.5557 10.5811C83.1036 10.4213 84.2147 10.2585 84.8906 10.0956C85.5664 9.9312 85.9027 9.66636 85.9027 9.30106V9.14124C85.9027 8.35584 85.5831 7.74548 84.9423 7.31016C84.3015 6.87485 83.3898 6.65871 82.2086 6.65871C81.0275 6.65871 80.0107 6.90224 79.3197 7.39084C78.6287 7.87943 78.2847 8.60394 78.2847 9.56438H76.8889C76.8889 8.68766 77.1096 7.93422 77.5526 7.3056C77.9955 6.67698 78.6165 6.19599 79.4171 5.86418C80.2177 5.53236 81.1523 5.36646 82.2193 5.36646C83.1797 5.36646 84.0458 5.51562 84.816 5.81243C85.5861 6.10924 86.198 6.54303 86.6516 7.11077C87.1052 7.67851 87.332 8.37867 87.332 9.20973V15.5355C87.332 15.7943 87.3426 16.0424 87.3655 16.2798C87.3883 16.5158 87.4233 16.7228 87.469 16.8978C87.5375 17.1185 87.6105 17.2951 87.6866 17.4245C87.7627 17.5538 87.8236 17.6421 87.8693 17.6878H86.44C86.4096 17.6573 86.3594 17.5751 86.2909 17.4412C86.2224 17.3073 86.1539 17.149 86.0854 16.9663C86.0245 16.776 85.9819 16.5614 85.9591 16.3255C85.9362 16.0896 85.9256 15.8034 85.9256 15.467L86.1539 15.639C85.9104 16.0896 85.5557 16.4838 85.0899 16.8232C84.6242 17.1627 84.0686 17.4275 83.4202 17.6178C82.7718 17.808 82.0519 17.9039 81.2573 17.9039L81.2588 17.9009ZM81.4765 16.6299C82.3 16.6299 83.0458 16.4945 83.7125 16.2235C84.3791 15.9526 84.9119 15.5645 85.3076 15.0561C85.7033 14.5492 85.9027 13.9328 85.9027 13.2083V10.3711L86.2117 10.8977C85.7688 11.1184 85.166 11.2965 84.405 11.4289C83.6424 11.5629 82.8144 11.671 81.9225 11.7547C80.6637 11.8764 79.7094 12.1169 79.0564 12.4746C78.4049 12.8338 78.0777 13.4168 78.0777 14.225C78.0777 15.0333 78.3638 15.5979 78.9361 16.0089C79.5084 16.4214 80.3547 16.6269 81.4765 16.6269V16.6299Z" fill="#1F2025"></path><path d="M90.9254 17.6833V5.534H92.3439V9.11396L91.8401 8.95414C91.8858 8.57209 91.9984 8.17483 92.178 7.7593C92.3576 7.34376 92.6073 6.95259 92.9269 6.58729C93.2465 6.22046 93.6499 5.92518 94.1339 5.70143C94.6179 5.47616 95.1963 5.36353 95.8676 5.36353C96.3562 5.36353 96.7489 5.40614 97.0457 5.48986C97.3425 5.57357 97.5297 5.63902 97.6058 5.68469L97.2161 7.05761C97.14 7.00434 96.9833 6.93584 96.7473 6.85213C96.5114 6.76841 96.172 6.7258 95.7291 6.7258C95.0883 6.7258 94.551 6.84909 94.1156 7.09719C93.6803 7.34529 93.3333 7.66797 93.0745 8.06371C92.8158 8.46098 92.6286 8.88108 92.5144 9.32857C92.4003 9.77454 92.3424 10.2038 92.3424 10.6147V17.6848H90.9238L90.9254 17.6833Z" fill="#1F2025"></path><path d="M99.9468 17.6832V-0.196777H101.297V11.0028L100.897 10.8308L107.2 5.53389H109.041L103.139 10.6025L103.483 9.8475L109.145 17.6832H107.6L102.531 10.6131L102.898 10.8186L101.067 12.3635L101.295 11.6542V17.6832H99.9453H99.9468Z" fill="#1F2025"></path><path d="M111.355 12.2035V10.9341H121.193L120.92 11.3237V11.0954C120.92 10.31 120.752 9.57789 120.416 8.89904C120.079 8.22019 119.594 7.67528 118.958 7.26279C118.321 6.85031 117.545 6.64482 116.63 6.64482C115.715 6.64482 114.88 6.8564 114.171 7.27954C113.461 7.70268 112.909 8.28564 112.511 9.02994C112.114 9.77424 111.916 10.6373 111.916 11.6205C111.916 12.6038 112.113 13.4836 112.505 14.234C112.898 14.9859 113.449 15.5688 114.158 15.9844C114.868 16.3999 115.696 16.6084 116.641 16.6084C117.335 16.6084 117.939 16.5232 118.454 16.3512C118.968 16.1792 119.396 15.9524 119.735 15.6708C120.075 15.3892 120.334 15.0894 120.513 14.7728C120.693 14.4562 120.798 14.1563 120.828 13.8748H122.235C122.204 14.3253 122.061 14.7834 121.805 15.2538C121.55 15.7226 121.187 16.1594 120.719 16.5628C120.25 16.9676 119.67 17.2934 118.98 17.5415C118.289 17.7896 117.495 17.9129 116.595 17.9129C115.42 17.9129 114.378 17.6465 113.466 17.1122C112.554 16.578 111.837 15.8413 111.315 14.8991C110.793 13.9569 110.531 12.8732 110.531 11.6449C110.531 10.4166 110.795 9.32066 111.321 8.37849C111.848 7.43631 112.568 6.6981 113.484 6.16537C114.399 5.63111 115.44 5.36475 116.607 5.36475C117.775 5.36475 118.827 5.63568 119.696 6.17754C120.565 6.71941 121.236 7.45305 121.709 8.38001C122.183 9.30696 122.419 10.345 122.419 11.4972C122.419 11.5962 122.417 11.7225 122.413 11.8747C122.408 12.0269 122.404 12.138 122.396 12.2065H111.356L111.355 12.2035Z" fill="#1F2025"></path><path d="M129.727 17.8658C129.385 17.8658 129.05 17.8232 128.726 17.7395C128.402 17.6558 128.112 17.5051 127.857 17.2875C127.601 17.0698 127.402 16.7715 127.256 16.3894C127.111 16.0089 127.038 15.5233 127.038 14.9358V6.77894H124.109V5.53235H126.214C126.412 5.53235 126.569 5.52474 126.683 5.50952C126.797 5.4943 126.88 5.45624 126.93 5.39536C126.979 5.33448 127.01 5.23858 127.021 5.10921C127.032 4.97983 127.038 4.80022 127.038 4.57191V1.6084H128.456V5.53235H132.345V6.77894H128.456V14.4214C128.456 15.1078 128.557 15.6451 128.759 16.0348C128.962 16.4244 129.344 16.6177 129.909 16.6177C130.122 16.6177 130.332 16.5995 130.537 16.5599C130.743 16.5218 130.899 16.4792 131.006 16.4336V17.6695C130.877 17.7228 130.697 17.7684 130.469 17.8065C130.24 17.8445 129.992 17.8643 129.724 17.8643L129.727 17.8658Z" fill="#1F2025"></path><path d="M135.845 2.46845C135.548 2.46845 135.292 2.38321 135.077 2.21121C134.864 2.03922 134.758 1.80938 134.758 1.51866C134.758 1.22794 134.864 1.01028 135.077 0.838288C135.291 0.666292 135.546 0.581055 135.845 0.581055C136.143 0.581055 136.386 0.666292 136.6 0.838288C136.813 1.01028 136.919 1.23708 136.919 1.51866C136.919 1.80025 136.813 2.03922 136.6 2.21121C136.386 2.38321 136.134 2.46845 135.845 2.46845ZM135.135 17.6833V5.53394H136.531V17.6833H135.135Z" fill="#1F2025"></path><path d="M140.535 17.6834V5.53406H141.954V17.6834H140.535ZM149.275 17.6834V10.0988C149.275 9.41995 149.155 8.82786 148.914 8.31948C148.674 7.81263 148.305 7.41536 147.811 7.12921C147.315 6.84305 146.678 6.69998 145.901 6.69998C145.214 6.69998 144.57 6.87045 143.967 7.20836C143.365 7.54778 142.879 8.00745 142.509 8.58737C142.139 9.16729 141.954 9.81874 141.954 10.5433L141.095 10.2236C141.095 9.30123 141.334 8.47321 141.811 7.74109C142.287 7.00896 142.913 6.42905 143.687 6.00286C144.461 5.57515 145.283 5.36206 146.153 5.36206C147.076 5.36206 147.876 5.53558 148.555 5.88262C149.234 6.22965 149.757 6.7289 150.127 7.38187C150.497 8.03333 150.681 8.82482 150.681 9.75481V17.6819H149.275V17.6834Z" fill="#1F2025"></path><path d="M161.908 17.1689C162.534 17.2146 163.086 17.3287 163.567 17.5114C164.048 17.694 164.423 17.9589 164.693 18.3059C164.964 18.653 165.1 19.1004 165.1 19.6499C165.1 20.2603 164.89 20.8052 164.471 21.2862C164.051 21.7672 163.407 22.1462 162.538 22.4247C161.669 22.7032 160.559 22.8417 159.209 22.8417C157.333 22.8417 155.929 22.5602 154.999 21.9955C154.069 21.4308 153.604 20.688 153.604 19.7641C153.604 19.4444 153.64 19.1674 153.712 18.9345C153.785 18.7017 153.867 18.5175 153.958 18.379L155.308 18.5845C155.24 18.6834 155.174 18.8265 155.113 19.0137C155.053 19.2009 155.022 19.4201 155.022 19.6712C155.022 20.3501 155.39 20.8539 156.126 21.1811C156.861 21.5084 157.92 21.6728 159.301 21.6728C160.345 21.6728 161.194 21.5875 161.846 21.4155C162.497 21.2436 162.98 21.0091 163.293 20.7123C163.605 20.4155 163.762 20.0868 163.762 19.7291C163.762 19.1796 163.538 18.8189 163.092 18.6484C162.646 18.4779 162.091 18.3638 161.427 18.3105L156.794 17.9787C156.046 17.9178 155.444 17.7016 154.986 17.3318C154.527 16.9619 154.299 16.4946 154.299 15.9299C154.299 15.5859 154.384 15.2663 154.556 14.9695C154.728 14.6727 154.929 14.4246 155.162 14.2252C155.395 14.0273 155.602 13.9056 155.786 13.8599L156.919 14.4094C156.713 14.4474 156.46 14.5844 156.164 14.8203C155.867 15.0563 155.718 15.347 155.718 15.6894C155.718 15.9954 155.846 16.2465 156.101 16.4444C156.357 16.6423 156.824 16.7686 157.503 16.8219L161.908 17.1659V17.1689ZM163.704 5.53406H165.042L164.538 10.35C164.447 11.2495 164.191 12.0653 163.771 12.7975C163.351 13.5296 162.768 14.111 162.021 14.5418C161.273 14.9725 160.359 15.1887 159.275 15.1887C158.191 15.1887 157.199 14.971 156.409 14.5372C155.619 14.1019 155.018 13.5174 154.602 12.7807C154.186 12.0456 153.978 11.2236 153.978 10.3149C153.978 9.40625 154.199 8.55693 154.642 7.80958C155.085 7.06224 155.698 6.4671 156.483 6.02569C157.269 5.58276 158.176 5.36206 159.206 5.36206C160.159 5.36206 160.98 5.53406 161.666 5.87653C162.352 6.219 162.891 6.64366 163.286 7.14595C163.678 7.64976 163.902 8.14444 163.955 8.63303H163.441L163.704 5.53253V5.53406ZM159.276 13.9193C160.092 13.9193 160.791 13.7686 161.369 13.4672C161.949 13.1658 162.394 12.7427 162.703 12.1978C163.012 11.6529 163.165 11.0105 163.165 10.2693C163.165 9.52802 163.012 8.93288 162.703 8.38798C162.394 7.84307 161.949 7.41384 161.369 7.10181C160.789 6.78978 160.095 6.63301 159.287 6.63301C158.479 6.63301 157.836 6.79283 157.244 7.11399C156.654 7.43363 156.194 7.87047 155.865 8.42451C155.537 8.97702 155.374 9.60413 155.374 10.3058C155.374 11.0075 155.527 11.6544 155.836 12.1993C156.145 12.7442 156.591 13.1673 157.174 13.4687C157.757 13.7701 158.457 13.9208 159.273 13.9208L159.276 13.9193Z" fill="#1F2025"></path><path d="M15.2256 1.73291L13.8009 6.29157L13.3017 1.37674C12.8983 0.901847 12.1144 0.521325 11.0459 0.521325C7.27113 0.521325 3.28173 5.6736 3.28173 11.8487C3.28173 14.8412 4.39743 16.3602 6.5588 16.3602C8.9089 16.3602 11.4508 14.6737 13.0886 11.0177C11.5208 14.9599 8.76735 17.762 5.3944 17.762C2.63941 17.762 1.04883 15.5535 1.04883 12.2049C1.04883 6.10283 5.48877 0.2854 11.0459 0.2854C13.0399 0.2854 14.3945 1.02209 15.2256 1.73443V1.73291Z" fill="#0042E4"></path><path d="M17.171 2.11343L16.4115 1.66289L19.9732 0.2854L15.8651 14.0816C17.5029 9.73606 20.0919 5.50921 22.7982 5.50921C24.0098 5.50921 24.2944 6.60208 23.7008 8.21701L20.9458 15.7925C20.614 16.6951 20.7556 16.9325 21.0402 16.9325C21.8469 16.9325 23.0113 15.1517 23.4618 14.2734C22.1802 17.0984 21.1817 17.6448 20.2563 17.6448C19.235 17.6448 18.9504 16.7194 19.4496 15.3647L22.0143 8.2642C22.4177 7.14851 22.0859 6.91106 21.5638 6.91106C19.5455 6.91106 16.5774 11.8974 15.1527 16.3617L14.8438 17.3359H13.1816L17.48 3.01755C17.5987 2.58984 17.5744 2.3524 17.171 2.11495V2.11343Z" fill="#0042E4"></path><path d="M32.4624 16.9309C33.2691 16.9309 34.3147 15.15 34.7653 14.2718C33.6724 16.9309 32.6039 17.6432 31.6785 17.6432C30.61 17.6432 30.301 16.7649 30.7043 15.3631L31.82 11.5868C30.0392 15.6706 28.6617 17.7604 26.549 17.7604C25.5049 17.7604 24.6738 16.9293 24.6738 15.1485C24.6738 10.7086 27.9737 5.50757 31.5598 5.50757C32.6526 5.50757 33.2934 6.02965 33.4837 6.50454L35.2173 5.67348L32.368 15.7893C32.1062 16.7147 32.1777 16.9293 32.4624 16.9293V16.9309ZM27.5947 16.6219C28.8291 16.6219 30.6815 13.7482 31.9159 11.0647L33.2934 6.60043C33.1275 6.19708 32.6755 5.81655 31.9159 5.81655C29.3284 5.81655 26.6678 11.2306 26.6678 14.9826C26.6678 16.0754 26.9996 16.6203 27.5932 16.6203L27.5947 16.6219Z" fill="#0042E4"></path><path d="M34.8391 15.1976C34.9335 14.0576 35.5986 13.5112 36.1923 13.5112C36.6428 13.5112 36.999 13.7958 36.8331 14.4853C36.3338 16.5508 36.5484 17.5249 37.6885 17.5249C39.1847 17.5249 39.9914 16.3133 39.9914 14.8415C39.9914 12.8704 37.7113 11.5172 37.7113 9.02403C37.7113 7.17164 39.3978 5.50952 41.3674 5.50952C43.337 5.50952 43.9077 6.72111 43.8134 7.78961C43.7418 8.69221 43.3385 9.1671 42.7205 9.1671C42.1741 9.1671 41.8179 8.69221 41.9838 8.02706C42.34 6.64957 42.3643 5.74697 41.343 5.74697C40.3932 5.74697 39.3247 6.60238 39.3247 8.28734C39.3247 10.6374 41.7707 11.849 41.7707 14.0819C41.7707 16.1246 40.2989 17.7623 37.8529 17.7623C35.7158 17.7623 34.7189 16.6695 34.8376 15.1976H34.8391Z" fill="#0042E4"></path><path d="M50.7225 5.50952C52.1944 5.50952 52.7408 6.17468 52.7408 7.17164C52.7408 9.21429 50.651 12.1352 46.1639 12.5385C46.0923 13.0378 46.0451 13.5355 46.0451 14.0104C46.0451 15.6253 46.52 16.6467 47.7073 16.6467C49.8443 16.6467 51.3633 14.1063 52.0528 12.0636C51.3161 14.7227 49.5125 17.7623 46.7818 17.7623C45.4515 17.7623 44.1699 16.9069 44.1699 14.1763C44.1699 9.68766 47.2324 5.50952 50.724 5.50952H50.7225ZM51.1259 6.41212C51.1259 6.0803 50.9828 5.74697 50.5079 5.74697C48.7271 5.74697 46.7803 9.16558 46.2095 12.3011C49.6768 11.5416 51.1244 8.12143 51.1244 6.41212H51.1259Z" fill="#0042E4"></path></g><defs><clipPath id="clip0_1125_29841"><rect width="164.45" height="23" fill="white" transform="translate(0.275391)"></rect></clipPath></defs></svg>