<svg xmlns:xlink="http://www.w3.org/1999/xlink" xmlns="http://www.w3.org/2000/svg" width="232.89" height="32" viewBox="0 0 131 18" fill="none">
<g clip-path="url(#clip0_4009_8378)">
<path d="M54.8828 17.1667H59.1614L64.3733 0.5H60.077L54.8828 17.1667Z" fill="#1E1E1E"/>
<path d="M70.4833 0.5L65.2891 17.1667H69.5853L74.7795 0.5H70.4833Z" fill="#1E1E1E"/>
<path d="M12.9239 8.5C13.6634 8.13333 14.2445 7.63333 14.6495 7C15.0544 6.36667 15.2657 5.65 15.2657 4.83333C15.2657 3.5 14.6847 2.45 13.5402 1.66667C12.3957 0.883333 10.7406 0.5 8.61008 0.5H0V17.1667H9.10309C11.3921 17.1667 13.1528 16.7667 14.3501 15.9833C15.5474 15.2 16.1461 14.0667 16.1461 12.6167C16.1461 11.5833 15.8644 10.7167 15.2833 10.0167C14.7199 9.3 13.9276 8.8 12.9239 8.5ZM4.04973 3.4H8.09946C9.10309 3.4 9.86021 3.56667 10.3884 3.88333C10.9167 4.21667 11.1632 4.7 11.1632 5.35C11.1632 6 10.9167 6.5 10.3884 6.83333C9.86021 7.16667 9.10309 7.33333 8.09946 7.33333H4.04973V3.4ZM11.2336 13.7667C10.6878 14.1 9.87782 14.2667 8.80376 14.2667H4.04973V10.15H8.80376C10.9695 10.15 12.0435 10.8333 12.0435 12.2167C12.0435 12.9167 11.7794 13.4333 11.2336 13.7667ZM28.5242 5.71667C27.5558 4.68333 26.2 4.16667 24.4745 4.16667C23.2067 4.16667 22.0446 4.43333 21.0234 4.98333C19.9845 5.51667 19.1746 6.3 18.5935 7.3C18.0125 8.3 17.7132 9.46667 17.7132 10.7833C17.7132 12.1 18.0125 13.2667 18.5935 14.2667C19.1746 15.2667 19.9845 16.0333 21.0234 16.5833C22.0622 17.1167 23.2067 17.4 24.4745 17.4C26.3232 17.4 27.7319 16.85 28.7003 15.7333V17.2167H32.4507V4.35H28.5242V5.71667ZM27.6262 13.35C26.9747 14 26.1472 14.3167 25.1612 14.3167C24.1575 14.3167 23.33 14 22.6785 13.35C22.027 12.7 21.6925 11.85 21.6925 10.7667C21.6925 9.68333 22.027 8.83333 22.6785 8.18333C23.33 7.53333 24.1575 7.21667 25.1612 7.21667C26.1472 7.21667 26.9747 7.53333 27.6262 8.18333C28.2777 8.83333 28.6122 9.68333 28.6122 10.7667C28.5946 11.8333 28.2777 12.7 27.6262 13.35ZM44.547 4.35H48.4735V17.1667H44.7583V15.65C44.2301 16.2 43.6138 16.6333 42.8919 16.9167C42.17 17.2167 41.3953 17.35 40.5501 17.35C38.7718 17.35 37.3632 16.8667 36.3243 15.9C35.2855 14.9333 34.7573 13.5 34.7573 11.5833V4.35H38.6837V11.0333C38.6837 13.1 39.5993 14.1333 41.4305 14.1333C42.3637 14.1333 43.1208 13.85 43.7019 13.2667C44.2653 12.6833 44.5646 11.8333 44.5646 10.6833V4.35H44.547ZM85.2556 5.71667C84.2872 4.68333 82.9314 4.16667 81.2059 4.16667C79.9382 4.16667 78.7761 4.43333 77.7548 4.98333C76.716 5.51667 75.906 6.3 75.325 7.3C74.7439 8.3 74.4446 9.46667 74.4446 10.7833C74.4446 12.1 74.7439 13.2667 75.325 14.2667C75.906 15.2667 76.716 16.0333 77.7548 16.5833C78.7937 17.1167 79.9382 17.4 81.2059 17.4C83.0547 17.4 84.4633 16.85 85.4317 15.7333V17.2167H89.1821V4.35H85.2556V5.71667ZM84.34 13.35C83.6886 14 82.861 14.3167 81.875 14.3167C80.8714 14.3167 80.0438 14 79.3923 13.35C78.7409 12.7 78.4063 11.85 78.4063 10.7667C78.4063 9.68333 78.7409 8.83333 79.3923 8.18333C80.0438 7.53333 80.8714 7.21667 81.875 7.21667C82.861 7.21667 83.6886 7.53333 84.34 8.18333C84.9915 8.83333 85.3261 9.68333 85.3261 10.7667C85.3261 11.8333 84.9915 12.7 84.34 13.35ZM100.187 13.9333L101.243 16.55C100.856 16.8167 100.381 17.0167 99.8171 17.15C99.2536 17.2833 98.6726 17.35 98.0387 17.35C96.4364 17.35 95.1863 16.9667 94.3059 16.1833C93.4255 15.4 92.9854 14.2667 92.9854 12.75V7.5H90.89V4.65H92.9854V1.51667H96.9118V4.63333H100.275V7.5H96.9118V12.7167C96.9118 13.25 97.0527 13.6667 97.352 13.9667C97.6513 14.2667 98.0563 14.4 98.6021 14.4C99.2184 14.4 99.7466 14.25 100.187 13.9333ZM106.332 8.16667C105.663 8.8 105.328 9.66667 105.328 10.7667C105.328 11.8667 105.663 12.7333 106.332 13.3667C107.001 14 107.846 14.3167 108.867 14.3167C110.206 14.3167 111.227 13.7333 111.913 12.55L114.96 14.1167C114.467 15.1333 113.692 15.9333 112.635 16.5C111.579 17.0667 110.329 17.35 108.903 17.35C107.459 17.35 106.173 17.0667 105.011 16.5C103.867 15.9333 102.969 15.15 102.317 14.15C101.666 13.15 101.349 12.0167 101.349 10.75C101.349 9.48333 101.666 8.35 102.317 7.35C102.969 6.35 103.867 5.56667 105.011 5C106.156 4.43333 107.459 4.15 108.903 4.15C110.329 4.15 111.579 4.43333 112.635 5C113.692 5.56667 114.484 6.36667 114.96 7.41667L111.913 8.96667C111.209 7.8 110.188 7.2 108.867 7.2C107.846 7.21667 107.001 7.53333 106.332 8.16667ZM130.296 9.83333V17.1667H126.369V10.4C126.369 9.38333 126.14 8.63333 125.665 8.13333C125.19 7.63333 124.52 7.38333 123.622 7.38333C122.636 7.38333 121.844 7.66667 121.263 8.25C120.682 8.83333 120.383 9.68333 120.383 10.8333V17.1667H116.456V0.5H120.383V5.68333C120.911 5.18333 121.527 4.81667 122.267 4.55C123.006 4.28333 123.816 4.15 124.679 4.15C126.352 4.15 127.707 4.63333 128.746 5.58333C129.785 6.55 130.296 7.96667 130.296 9.83333ZM53.9671 0.5L57.0308 10.3L54.8827 17.1667L49.6708 0.5H53.9671ZM64.3731 0.5L67.4368 10.3L65.2887 17.1667L62.225 7.36667L64.3731 0.5Z" fill="#1E1E1E"/>
</g>
<defs>
<clipPath id="clip0_4009_8378">
<rect width="131" height="17" fill="white" transform="translate(0 0.5)"/>
</clipPath>
</defs>
</svg>