<svg xmlns:xlink="http://www.w3.org/1999/xlink" xmlns="http://www.w3.org/2000/svg" style="width:100%;height:100%;" viewBox="0 0 94 24" preserveAspectRatio="none" width="94" height="24"><defs><svg width="94" height="24" fill="none" id="svg-327281561_3851"><g clip-path="url(#svg-327281561_3851_a)" fill="none"><mask id="svg-327281561_3851_b" style="mask-type:luminance" maskUnits="userSpaceOnUse" x="0" y="0" width="93" height="24" fill="none"><path d="M.02 0h92.622v24H.022V0Z" fill="#FFFFFF"></path></mask><g mask="url(#svg-327281561_3851_b)" fill="#343434"><path fill-rule="evenodd" clip-rule="evenodd" d="M6.02 15.49v2.504l-6-6 1.252-1.25L6.02 15.49Zm2.505 2.504H6.02l6 6 1.25-1.25-4.746-4.75Zm14.24-4.747 1.252-1.253-12-12-1.25 1.256 4.748 4.747h-2.869L9.333 2.69 8.082 3.941l2.06 2.061h-1.44v9.314h9.313v-1.44l2.061 2.06 1.252-1.25-3.313-3.314v-2.87l4.75 4.745ZM6.647 5.373 5.39 6.626 6.735 7.97l1.252-1.252-1.34-1.344ZM17.302 16.03l-1.252 1.253 1.343 1.344 1.253-1.253-1.344-1.344ZM3.96 8.06 2.707 9.314l3.314 3.312V10.12L3.96 8.06ZM13.9 18h-2.505l3.313 3.314 1.252-1.253L13.9 18Z" fill="#343434"></path><path d="M91.007 17.979c-.809 0-1.439-.22-1.89-.659-.452-.44-.678-1.049-.678-1.825v-4.8h-1.45V8.898h1.458l.26-2.4h1.707v2.4h2.227v1.8h-2.227v4.538a.95.95 0 0 0 .256.667.88.88 0 0 0 .68.278h1.29v1.799l-1.633-.001Zm-8.719.17c-1.077 0-1.944-.257-2.6-.77a3.45 3.45 0 0 1-1.259-2.049h2.143c.093.312.301.577.582.742.344.199.737.296 1.134.28 1.143 0 1.717-.32 1.717-.937 0-.308-.18-.543-.539-.706a5.996 5.996 0 0 0-1.302-.389 16.02 16.02 0 0 1-1.538-.376 2.67 2.67 0 0 1-1.314-.875c-.356-.427-.535-.987-.537-1.681a2.38 2.38 0 0 1 .905-1.903c.606-.505 1.446-.758 2.52-.757 1.074 0 1.92.24 2.56.719a3.22 3.22 0 0 1 1.215 1.94H83.83c-.228-.571-.77-.857-1.624-.857-.916 0-1.373.287-1.373.86a.739.739 0 0 0 .386.64c.293.18.62.296.96.345.427.073.847.17 1.26.291.43.123.85.273 1.26.451.4.181.737.475.971.845.272.435.407.942.39 1.455a2.4 2.4 0 0 1-.96 1.974c-.64.504-1.577.757-2.81.758ZM75.9 9.635c-.66-.593-1.585-.89-2.773-.89-.95 0-1.745.255-2.386.766a3.6 3.6 0 0 0-1.28 1.979h2.026c.103-.297.3-.553.56-.728a1.8 1.8 0 0 1 1.072-.303 1.92 1.92 0 0 1 1.317.427 1.51 1.51 0 0 1 .48 1.197v.436h-2.31c-1.07 0-1.909.267-2.514.8a2.589 2.589 0 0 0-.907 2.019 2.66 2.66 0 0 0 .844 2.033c.564.533 1.31.8 2.24.8a3.4 3.4 0 0 0 1.658-.385c.411-.2.76-.51 1.005-.896h.083l.16 1.12h1.715v-5.92c.002-1.04-.328-1.858-.99-2.455Zm-.975 4.852a1.828 1.828 0 0 1-.6 1.44c-.396.353-.939.53-1.627.53-.5 0-.883-.113-1.149-.34a1.08 1.08 0 0 1-.4-.866c0-.8.523-1.197 1.55-1.197h2.226v.433Zm-10.884 3.682c-1.3 0-2.339-.417-3.117-1.252-.777-.833-1.166-1.987-1.168-3.462 0-1.476.39-2.624 1.164-3.46.775-.834 1.815-1.25 3.121-1.25 1.06 0 1.94.283 2.637.849a4 4 0 0 1 1.39 2.147h-1.966a2.2 2.2 0 0 0-2.06-1.197 2.079 2.079 0 0 0-1.683.76c-.426.51-.64 1.226-.64 2.15 0 .925.214 1.643.64 2.153a2.08 2.08 0 0 0 1.682.763 2.21 2.21 0 0 0 2.06-1.2h1.966a4.03 4.03 0 0 1-1.39 2.15c-.694.565-1.572.849-2.636.849Zm-11.59 3.262 1.37-3.43-3.683-9.082h2.143l2.486 6.427h.082l2.49-6.427h2.142l-4.975 12.512H52.45ZM48.286 9.635c-.66-.593-1.584-.89-2.774-.89-.948 0-1.744.255-2.386.766a3.57 3.57 0 0 0-1.27 1.979h2.024c.103-.297.3-.553.56-.728a1.8 1.8 0 0 1 1.072-.303c.557 0 .996.142 1.316.427a1.499 1.499 0 0 1 .48 1.197v.436h-2.32c-1.066 0-1.904.267-2.513.8a2.59 2.59 0 0 0-.909 2.019 2.66 2.66 0 0 0 .845 2.025c.564.533 1.31.8 2.24.8a3.4 3.4 0 0 0 1.656-.385c.412-.2.76-.51 1.006-.896h.082l.17 1.12h1.712v-5.92c0-1.035-.33-1.85-.99-2.447m-.978 4.852a1.828 1.828 0 0 1-.6 1.44c-.396.353-.939.53-1.628.53-.5 0-.884-.113-1.15-.34a1.09 1.09 0 0 1-.4-.866c.007-.796.524-1.195 1.55-1.197h2.228v.433Zm-10.138-1.032c.307-.081.6-.197.88-.346.327-.179.63-.392.91-.64.335-.31.594-.693.756-1.12.194-.502.29-1.036.283-1.574 0-1.143-.364-2.058-1.094-2.746-.73-.688-1.68-1.03-2.848-1.027h-4.972v12h2.143v-4.454h1.625l3.088 4.451h2.4l-3.17-4.544Zm-3.942-1.806v-3.76h2.654c.608 0 1.088.16 1.44.494.352.335.531.792.531 1.386 0 .595-.178 1.058-.534 1.389-.392.34-.9.517-1.42.491h-2.67Z" fill="#343434"></path></g></g><defs><clipPath id="svg-327281561_3851_a"><path fill="#fff" transform="translate(.02)" d="M0 0h93v24H0z"></path></clipPath></defs></svg></defs><use href="#svg-327281561_3851"></use></svg>
