<svg xmlns:xlink="http://www.w3.org/1999/xlink" xmlns="http://www.w3.org/2000/svg" style="width:100%;height:100%;" viewBox="0 0 98 24" preserveAspectRatio="none" width="98" height="24"><defs><svg width="98" height="24" fill="none" id="svg-1434048927_1352"><path d="M49.224 6.599c-3.711 0-6.388 2.43-6.388 6.077 0 3.646 3.01 6.077 6.725 6.077 2.242 0 4.219-.892 5.443-2.394l-2.572-1.492c-.68.746-1.712 1.181-2.871 1.181-1.611 0-2.98-.844-3.487-2.194h9.42c.075-.378.118-.77.118-1.182 0-3.642-2.672-6.073-6.388-6.073Zm-3.177 4.895c.42-1.347 1.57-2.194 3.177-2.194 1.61 0 2.76.847 3.178 2.194h-6.355Zm-.76-8.609L35.971 19.09 26.65 2.885h3.493l5.824 10.128L41.79 2.885h3.496Zm-31.49-1.688 12.424 21.607H1.375L13.798 1.197Zm55.331 11.479c0 2.025 1.318 3.376 3.362 3.376 1.385 0 2.424-.632 2.959-1.661l2.582 1.495c-1.07 1.79-3.073 2.867-5.54 2.867-3.716 0-6.389-2.431-6.389-6.077s2.676-6.077 6.388-6.077c2.468 0 4.468 1.077 5.54 2.866l-2.581 1.496C74.914 9.93 73.875 9.3 72.49 9.3c-2.04 0-3.362 1.35-3.362 3.376Zm27.73-9.79v15.529h-3.025V2.885h3.026Zm-11.43 3.713c-3.712 0-6.388 2.43-6.388 6.077 0 3.646 3.012 6.077 6.724 6.077 2.242 0 4.22-.892 5.443-2.394l-2.572-1.492c-.68.746-1.711 1.181-2.871 1.181-1.61 0-2.98-.844-3.487-2.194h9.42c.075-.378.118-.77.118-1.182 0-3.642-2.672-6.073-6.388-6.073Zm-3.178 4.895c.42-1.347 1.567-2.194 3.177-2.194s2.76.847 3.178 2.194H82.25ZM65.093 6.936v3.272a3.818 3.818 0 0 0-1.075-.166c-1.954 0-3.362 1.35-3.362 3.376v4.997H57.63V6.936h3.026v3.106c0-1.715 1.986-3.106 4.437-3.106Z" fill="#343434"></path></svg></defs><use href="#svg-1434048927_1352"></use></svg>
