<svg xmlns:xlink="http://www.w3.org/1999/xlink" xmlns="http://www.w3.org/2000/svg" style="width:100%;height:100%;" viewBox="0 0 92 22" preserveAspectRatio="none" width="100" height="24"><defs><svg width="92" height="22" fill="none" id="svg1464589711_3467"><g clip-path="url(#svg1464589711_3467_a)" fill="#343434"><path d="M22.47 13.474c.09.905.92 2.445 3.29 2.445 2.068 0 3.064-1.313 3.064-2.596 0-1.162-.785-2.098-2.34-2.43l-1.116-.242c-.438-.075-.725-.316-.725-.709 0-.453.453-.785 1.011-.785.906 0 1.238.589 1.298 1.057l1.781-.408c-.09-.845-.845-2.279-3.094-2.279-1.705 0-2.958 1.178-2.958 2.581 0 1.102.694 2.022 2.219 2.354l1.041.242c.604.136.845.423.845.77 0 .422-.332.784-1.041.784-.936 0-1.389-.573-1.449-1.207l-1.826.423Zm13.175 2.203h2.038c-.03-.271-.075-.815-.075-1.434V7.77H35.48v4.588c0 .92-.544 1.554-1.495 1.554-.996 0-1.449-.709-1.449-1.584V7.769h-2.143v4.995c0 1.72 1.087 3.11 3.004 3.11.83 0 1.75-.318 2.188-1.057-.015.332.015.694.06.86Zm6.37 3.049v-3.818c.392.528 1.192.965 2.278.965 2.234 0 3.728-1.765 3.728-4.165 0-2.34-1.328-4.105-3.637-4.105-1.192 0-2.068.528-2.43 1.147v-.966h-2.068v10.942h2.128Zm3.893-7.003c0 1.419-.86 2.234-1.962 2.234-1.086 0-1.977-.83-1.977-2.234s.875-2.219 1.977-2.219c1.087 0 1.962.815 1.962 2.219Zm3.306 1.796c0 1.238 1.026 2.384 2.716 2.384 1.177 0 1.932-.543 2.324-1.177 0 .302.03.74.076.951h1.962a9.318 9.318 0 0 1-.09-1.252V10.53c0-1.585-.936-3.004-3.427-3.004-2.113 0-3.26 1.359-3.38 2.596l1.886.408c.06-.695.574-1.283 1.51-1.283.905 0 1.327.468 1.327 1.026 0 .272-.15.498-.588.559l-1.947.286c-1.328.197-2.37.981-2.37 2.4Zm3.169.785c-.694 0-1.026-.453-1.026-.92 0-.604.437-.921.98-.997l1.781-.272v.348c-.015 1.418-.845 1.84-1.735 1.84Zm8.029 1.373v-.966c.422.68 1.253 1.162 2.34 1.162 2.248 0 3.727-1.78 3.727-4.18 0-2.34-1.328-4.135-3.637-4.135-1.177 0-2.038.513-2.385 1.071V4.041H58.36v11.621l2.053.015Zm3.939-3.97c0 1.45-.86 2.25-1.962 2.25-1.072 0-1.977-.815-1.977-2.25 0-1.448.905-2.233 1.977-2.233 1.087 0 1.962.785 1.962 2.234Zm3.335 1.812c0 1.238 1.027 2.384 2.717 2.384 1.177 0 1.932-.543 2.324-1.177 0 .302.03.74.076.951h1.962a9.317 9.317 0 0 1-.09-1.252V10.53c0-1.585-.937-3.004-3.427-3.004-2.113 0-3.26 1.359-3.38 2.596l1.886.408c.06-.695.574-1.283 1.51-1.283.905 0 1.327.468 1.327 1.026 0 .272-.15.498-.588.559l-1.947.286c-1.328.197-2.37.981-2.37 2.4Zm3.155.785c-.695 0-1.026-.453-1.026-.92 0-.604.437-.921.98-.997l1.781-.272v.348c0 1.418-.83 1.84-1.735 1.84Zm5.297-.83c.09.905.92 2.445 3.29 2.445 2.068 0 3.064-1.313 3.064-2.596 0-1.162-.785-2.098-2.34-2.43l-1.116-.242c-.438-.075-.725-.316-.725-.709 0-.453.453-.785 1.011-.785.906 0 1.238.589 1.299 1.057l1.78-.408c-.09-.845-.845-2.279-3.094-2.279-1.705 0-2.958 1.178-2.958 2.581 0 1.102.695 2.022 2.219 2.354l1.041.242c.604.136.846.423.846.77 0 .422-.333.784-1.042.784-.936 0-1.388-.573-1.449-1.207l-1.826.423Zm9.599-2.657c.045-.724.663-1.554 1.766-1.554 1.222 0 1.735.77 1.765 1.554h-3.531Zm3.743 2.068c-.257.71-.8 1.207-1.797 1.207-1.056 0-1.946-.754-1.992-1.796h5.645c0-.03.03-.347.03-.664 0-2.535-1.463-4.09-3.894-4.09-2.022 0-3.878 1.645-3.878 4.166 0 2.671 1.901 4.226 4.074 4.226 1.947 0 3.2-1.147 3.593-2.506l-1.781-.543Zm-87.821.151a.844.844 0 0 1-.68-1.343l.318-.453 7.32-9.885a.336.336 0 0 1 .256-.136.31.31 0 0 1 .317.317V13.02l-7.531.015Zm15.092-4.27a.844.844 0 0 1 .68 1.343l-.318.453-7.32 9.885a.336.336 0 0 1-.256.136.31.31 0 0 1-.317-.317v-11.5h7.531Z" fill="#343434"></path><path d="M16.751 8.766a.844.844 0 0 1 .68 1.343l-.318.453-7.32 9.885a.336.336 0 0 1-.256.136.31.31 0 0 1-.317-.317v-11.5h7.531Z" fill-opacity="0.2" fill="#343434"></path></g><defs><clipPath id="svg1464589711_3467_a"><path fill="#fff" transform="translate(.591 .77)" d="M0 0h91.217v20.46H0z"></path></clipPath></defs></svg></defs><use href="#svg1464589711_3467"></use></svg>
